<?xml version="1.0" standalone="no"?>
<!DOCTYPE svg PUBLIC "-//W3C//DTD SVG 20010904//EN"
 "http://www.w3.org/TR/2001/REC-SVG-20010904/DTD/svg10.dtd">
<svg version="1.0" xmlns="http://www.w3.org/2000/svg"
 width="800.000000pt" height="450.000000pt" viewBox="0 0 800.000000 450.000000"
 preserveAspectRatio="xMidYMid meet">

<g transform="translate(0.000000,450.000000) scale(0.100000,-0.100000)"
fill="#000000" stroke="none">
<path d="M0 4039 c0 -447 1 -460 19 -454 38 12 85 14 130 5 56 -10 220 -1 198
12 -9 4 -32 6 -53 3 -36 -4 -64 7 -64 26 0 5 25 9 55 9 32 0 55 4 55 11 0 5
-4 8 -9 5 -5 -4 -7 4 -3 16 3 14 1 19 -6 14 -8 -5 -10 2 -6 24 5 21 3 30 -7
31 -8 1 -21 2 -29 3 -8 2 -29 3 -47 4 -24 2 -31 6 -27 17 4 8 -1 17 -10 21
-10 4 -16 18 -16 40 0 33 1 34 38 34 21 0 42 4 48 10 6 6 38 7 83 2 59 -5 76
-11 85 -27 6 -11 19 -26 30 -34 14 -11 17 -22 12 -53 -5 -28 -3 -40 8 -44 8
-3 14 -20 14 -42 1 -124 9 -129 180 -125 75 2 170 8 210 13 90 12 145 13 138
2 -3 -5 17 -19 45 -31 42 -18 54 -29 71 -67 18 -42 19 -48 4 -62 -12 -12 -20
-13 -40 -4 -35 15 -66 5 -66 -23 0 -13 -5 -25 -12 -27 -14 -5 74 -95 157 -161
33 -26 71 -56 85 -68 14 -11 47 -31 73 -45 34 -17 47 -30 43 -40 -8 -20 22
-30 45 -16 10 7 24 12 31 11 7 0 3 -4 -9 -9 -26 -11 -30 -28 -8 -36 8 -4 12
-10 9 -15 -3 -5 -9 -7 -14 -4 -4 3 -7 -6 -6 -20 1 -24 4 -25 63 -23 46 1 60 5
56 15 -3 7 -2 21 2 31 5 9 9 24 11 32 2 8 9 19 17 24 13 8 13 13 0 33 -12 18
-13 32 -6 56 l9 32 85 3 c102 3 127 -10 198 -102 25 -32 51 -58 56 -58 6 1 11
13 13 27 4 27 16 30 56 16 22 -9 25 -17 32 -90 l6 -80 56 -56 c30 -30 63 -55
74 -55 11 0 38 -18 61 -40 22 -22 52 -43 66 -47 14 -3 38 -15 53 -26 15 -11
33 -17 42 -14 8 3 18 2 21 -3 8 -13 35 -13 35 0 0 6 16 33 36 61 23 33 34 58
31 71 -3 11 2 27 12 37 16 16 21 16 43 5 19 -10 24 -19 21 -36 -3 -17 7 -33
36 -63 34 -32 41 -46 41 -77 0 -38 1 -39 34 -36 35 2 38 6 50 83 2 16 9 19 36
17 37 -4 52 11 43 46 -4 17 0 28 16 38 25 18 27 34 5 34 -12 0 -15 6 -10 25 4
17 2 25 -6 26 -7 0 -26 2 -42 2 -16 1 -31 8 -34 16 -3 10 3 13 26 9 20 -3 33
0 36 9 3 7 12 13 21 13 10 0 15 10 15 30 0 23 -4 30 -20 30 -22 0 -27 16 -8
22 8 3 12 21 11 47 -3 65 -11 82 -38 78 -32 -4 -38 -12 -27 -34 5 -10 6 -27 2
-38 -6 -15 -9 -10 -13 25 -14 109 -15 136 -7 150 7 11 10 0 10 -35 0 -36 3
-46 10 -35 6 8 7 34 4 58 -4 26 -2 42 4 42 6 0 13 -22 17 -50 10 -75 24 -60
24 25 0 73 -1 75 -31 90 -17 8 -37 15 -44 15 -8 0 -14 10 -15 23 -3 78 -2 170
4 220 6 50 5 57 -11 57 -15 1 -15 2 -1 13 9 7 14 17 12 24 -2 6 2 15 9 19 15
10 121 25 161 24 19 0 27 5 27 16 0 11 6 15 20 11 11 -3 28 3 40 13 21 18 65
16 54 -2 -7 -11 13 -28 33 -28 6 0 19 7 27 16 19 18 36 10 36 -17 0 -23 16
-25 24 -2 5 12 10 13 18 5 20 -20 39 14 41 73 2 59 16 77 18 23 1 -18 2 -40 3
-48 2 -8 3 -26 4 -40 2 -20 4 -22 12 -10 5 8 10 29 10 45 0 17 7 39 15 49 8
11 15 27 15 37 0 25 100 26 101 1 0 -14 2 -14 8 3 6 15 9 11 14 -20 4 -22 7
-56 7 -75 0 -19 7 -57 14 -85 l14 -50 2 125 c1 69 4 117 7 107 4 -14 8 -16 19
-6 11 9 14 7 15 -12 0 -22 1 -23 9 -4 5 11 9 14 9 8 1 -14 49 -17 67 -5 6 4
14 14 18 22 3 8 4 3 1 -12 -4 -23 -2 -28 15 -28 23 0 28 -38 9 -68 -8 -12 -7
-25 1 -47 8 -22 13 -26 20 -16 4 8 6 20 3 28 -8 21 28 48 62 47 86 -3 82 -1
95 -49 7 -24 10 -54 7 -65 -3 -11 -1 -20 4 -20 5 0 9 -19 9 -42 0 -28 3 -38 9
-29 5 8 7 -3 5 -30 -1 -24 -3 -80 -4 -124 -1 -44 -7 -86 -12 -92 -7 -9 -6 -13
3 -13 11 0 11 -2 -1 -10 -8 -5 -27 -10 -42 -10 -45 0 -32 -17 17 -25 45 -6 46
-7 39 -40 -3 -18 -2 -35 3 -38 5 -3 8 -30 7 -61 -1 -31 3 -56 7 -56 5 0 9 -7
9 -15 0 -8 -6 -12 -14 -9 -11 4 -13 0 -9 -15 3 -12 8 -21 12 -21 11 0 3 -164
-9 -168 -5 -2 -10 -15 -10 -28 0 -22 -4 -25 -32 -22 -28 3 -33 0 -34 -20 -2
-29 -9 -36 -29 -29 -23 10 -20 57 5 57 11 0 20 5 20 10 0 6 -13 10 -29 10 -35
0 -42 -20 -32 -95 4 -30 4 -60 -1 -67 -6 -10 -8 -10 -9 0 -1 6 -2 15 -3 20 -1
4 -6 42 -10 85 -4 44 -14 83 -22 92 -12 12 -12 15 3 24 17 9 17 11 -1 28 -13
13 -20 15 -23 6 -3 -7 -11 -13 -19 -13 -16 0 -18 -23 -5 -48 6 -11 4 -31 -5
-57 -7 -22 -14 -58 -14 -80 0 -25 -3 -35 -9 -27 -4 7 -14 12 -21 10 -8 -2 -16
5 -18 15 -2 12 3 17 19 17 22 0 22 1 4 14 -23 16 -38 5 -48 -36 -5 -17 -12
-25 -20 -22 -16 6 -33 -13 -38 -40 -2 -11 -10 -21 -18 -24 -11 -4 -12 2 -7 24
4 16 13 32 19 36 9 6 9 8 0 8 -6 0 -15 -5 -18 -10 -4 -6 -11 -8 -16 -4 -9 5
-36 -53 -31 -68 5 -17 -18 -6 -49 23 -29 27 -44 32 -97 37 -55 4 -66 2 -87
-18 -31 -30 -65 -101 -66 -142 -1 -30 -2 -30 -8 -9 -11 40 -31 38 -31 -3 0
-43 -12 -47 -27 -8 -10 25 -11 23 -12 -25 -1 -30 -6 -53 -11 -53 -6 0 -10 -6
-9 -12 4 -31 -2 -40 -21 -35 -11 3 -17 1 -14 -4 11 -18 -27 -21 -71 -7 -25 9
-45 11 -45 7 0 -5 7 -9 15 -9 8 0 15 -5 15 -10 0 -7 -14 -9 -37 -5 -28 5 -34
4 -23 -4 13 -9 12 -11 -5 -11 -15 0 -17 -2 -6 -9 8 -5 9 -11 3 -15 -5 -3 -20
3 -33 13 -22 17 -28 17 -74 5 -27 -8 -75 -19 -105 -24 -30 -6 -68 -16 -84 -22
-24 -10 -31 -9 -42 7 -8 10 -14 29 -14 43 0 13 -4 21 -9 18 -5 -3 -6 -27 -4
-53 5 -39 3 -46 -8 -36 -8 8 -12 38 -12 85 l1 73 -19 -40 -19 -40 6 40 c3 22
8 49 10 60 5 18 3 17 -16 -4 -11 -13 -25 -31 -29 -39 -14 -26 -31 -5 -20 25 5
14 7 28 5 31 -11 11 -58 3 -75 -12 -13 -11 -20 -13 -23 -6 -2 7 -29 12 -63 13
-33 1 -52 3 -42 5 10 2 14 8 11 15 -4 7 -4 9 0 5 13 -11 43 28 41 53 -1 13 5
29 14 36 15 11 14 12 -1 13 -9 0 -20 -5 -23 -10 -4 -6 -11 -8 -16 -5 -5 3 -6
-1 -3 -9 7 -19 -25 -36 -70 -36 -45 0 -46 14 -3 30 49 18 81 37 86 51 2 8 -3
10 -20 5 -13 -4 -39 -10 -58 -13 -30 -5 -33 -4 -28 11 4 10 10 29 13 42 5 19
3 23 -10 18 -9 -3 -16 -2 -16 4 0 6 5 12 11 14 5 2 7 11 3 21 -5 15 -9 15 -22
5 -14 -12 -15 -6 -9 52 7 62 6 64 -8 36 -8 -15 -15 -37 -15 -47 0 -12 -7 -19
-20 -19 -11 0 -20 7 -20 15 0 8 4 15 9 15 13 0 21 65 11 97 -7 24 -8 21 -9
-22 -1 -56 -5 -63 -43 -88 -23 -14 -28 -15 -28 -3 0 8 -5 18 -11 22 -13 8 -30
-16 -22 -30 3 -5 5 -27 5 -48 -1 -27 3 -40 14 -45 9 -3 19 -2 23 3 3 5 19 9
36 9 23 0 31 6 36 25 6 21 7 18 8 -15 0 -22 -5 -51 -12 -65 -7 -14 -14 -62
-15 -108 -1 -46 -4 -87 -7 -93 -4 -5 -18 -9 -33 -9 -20 0 -23 -3 -14 -12 7 -7
12 -23 12 -36 0 -19 4 -22 20 -17 11 4 20 2 20 -4 0 -6 -7 -11 -16 -11 -9 0
-12 -5 -8 -12 19 -31 11 -113 -11 -104 -7 2 -17 0 -23 -6 -11 -11 -187 -51
-282 -63 -14 -2 -25 -4 -25 -5 0 -1 -16 -4 -35 -7 -19 -2 -42 -9 -51 -14 -10
-5 -31 -9 -48 -9 -20 0 -31 -5 -31 -14 0 -8 -12 -17 -27 -20 -85 -17 -104 -18
-118 -6 -10 8 -15 9 -15 2 0 -6 -7 -9 -16 -5 -14 5 -14 3 -2 -16 10 -17 14
-18 16 -6 2 8 8 15 13 15 6 0 7 -10 4 -22 -8 -25 -8 -26 -6 -48 1 -12 3 -12
12 2 10 19 83 43 99 33 6 -3 34 -8 62 -9 29 -2 47 -1 41 1 -18 7 -16 43 2 43
8 0 15 5 15 11 0 6 9 8 20 4 11 -3 20 -2 20 4 0 5 15 12 33 16 17 3 41 10 52
14 37 15 90 29 133 36 23 4 55 13 70 20 15 7 60 21 101 31 62 14 71 19 57 29
-27 20 -20 45 14 45 16 0 33 7 37 15 14 24 53 7 53 -22 0 -21 4 -24 23 -20 12
3 58 9 102 12 72 6 82 5 102 -14 18 -17 20 -26 13 -50 -11 -40 15 -74 75 -97
35 -13 45 -22 45 -39 0 -17 9 -26 30 -33 20 -8 28 -16 24 -26 -3 -8 5 -28 17
-45 12 -17 19 -34 15 -38 -4 -4 -10 -2 -14 4 -4 6 -30 19 -57 28 -28 9 -62 28
-77 42 l-26 25 -22 -20 c-24 -23 -19 -42 11 -42 10 0 19 -4 19 -9 0 -5 9 -7
21 -4 17 5 19 2 13 -21 -4 -16 -2 -26 5 -26 6 0 11 7 11 16 0 8 4 12 10 9 6
-3 10 -22 10 -42 0 -32 -2 -35 -22 -30 -21 6 -22 5 -5 -7 16 -13 16 -14 -5
-19 -12 -4 -25 -1 -29 5 -4 6 -14 8 -24 5 -11 -5 -14 -3 -9 5 5 7 2 9 -8 6 -8
-4 -20 2 -26 13 -15 23 -52 24 -94 3 -27 -14 -29 -18 -15 -26 17 -9 24 -29 10
-27 -19 3 -53 -15 -53 -27 0 -8 -5 -14 -12 -14 -9 0 -9 -3 0 -12 8 -8 15 -8
25 1 11 9 17 8 27 -4 13 -16 45 -21 36 -6 -3 4 4 17 15 27 11 10 17 24 15 31
-6 14 10 18 18 4 3 -5 17 -8 31 -8 39 0 104 -33 111 -56 4 -14 0 -25 -12 -34
-24 -17 -33 -16 -41 5 -10 28 -25 42 -36 35 -6 -4 -25 -8 -42 -10 -16 -2 -35
-10 -42 -19 -9 -12 -19 -14 -40 -9 -35 9 -86 10 -100 2 -6 -4 -16 0 -23 8 -9
10 -9 15 -1 15 6 0 11 6 11 14 0 17 -34 31 -50 21 -6 -4 -17 -1 -25 5 -12 10
-15 9 -15 -6 -1 -17 -2 -17 -19 3 -15 18 -20 20 -25 8 -6 -17 -36 -20 -36 -4
0 7 -9 9 -21 6 -14 -4 -23 1 -30 17 -8 16 -19 23 -40 23 -16 0 -29 -4 -29 -8
0 -3 -9 -9 -20 -12 -14 -4 -18 -10 -14 -22 6 -15 2 -16 -36 -11 -24 3 -48 10
-54 16 -5 5 -25 10 -43 10 -23 0 -33 5 -33 15 0 8 8 15 18 15 9 0 31 9 47 20
17 11 40 20 53 20 13 0 20 4 17 10 -3 6 -15 10 -26 10 -12 0 -17 4 -13 11 4 7
24 9 56 5 l50 -7 -19 25 c-20 29 -26 30 -54 16 -17 -10 -18 -8 -9 16 6 15 8
29 5 32 -3 3 -5 1 -5 -5 0 -6 -17 -10 -40 -9 -25 1 -40 -2 -40 -10 0 -14 -139
-24 -189 -13 -19 4 -38 5 -41 1 -3 -5 -21 -8 -40 -7 -31 0 -36 -4 -41 -30 -6
-28 -7 -29 -14 -8 -4 13 -11 21 -15 18 -4 -2 4 -46 17 -97 12 -51 23 -102 23
-114 0 -12 11 -29 27 -39 29 -19 73 -68 67 -74 -2 -2 -11 2 -19 9 -14 12 -15
10 -10 -12 4 -15 2 -29 -4 -32 -6 -4 -11 -15 -11 -24 0 -11 -18 -26 -49 -40
-60 -27 -68 -27 -83 -2 -7 11 -20 20 -28 19 -10 0 -11 -2 -2 -6 6 -2 12 -11
12 -20 0 -12 -10 -14 -44 -12 -30 3 -42 0 -39 -8 6 -15 32 -25 45 -16 7 3 8 1
4 -5 -4 -7 -14 -12 -22 -12 -8 0 -14 -5 -14 -10 0 -6 11 -8 26 -4 23 6 25 5
14 -12 -7 -11 -23 -28 -38 -38 -14 -11 -22 -14 -18 -8 4 7 0 15 -10 19 -10 4
-19 2 -22 -5 -2 -7 -10 -12 -18 -12 -7 0 -28 -9 -45 -19 l-31 -19 30 -16 c48
-25 78 -20 119 19 54 51 78 42 54 -20 -18 -44 3 -41 48 6 26 27 51 49 55 49 4
0 14 7 23 15 18 18 79 11 102 -12 8 -8 17 -10 20 -5 3 5 19 12 35 16 16 4 30
15 33 26 4 13 14 20 30 20 22 0 24 -3 19 -22 -4 -13 -11 -48 -16 -78 -15 -81
-28 -137 -29 -122 0 7 -6 10 -11 7 -7 -4 -6 -13 1 -26 10 -20 12 -20 40 12 16
18 32 47 35 66 3 18 10 33 15 33 12 0 11 -37 -1 -45 -5 -3 -10 -15 -10 -25 0
-10 -3 -20 -8 -22 -13 -6 -44 -69 -37 -76 3 -4 11 1 16 11 12 21 29 22 29 3 0
-8 -10 -18 -22 -22 -12 -3 -31 -15 -42 -26 -12 -10 -29 -17 -38 -14 -10 2 -18
1 -18 -3 0 -3 -17 -14 -37 -23 -21 -9 -49 -26 -63 -39 -47 -44 -99 -74 -303
-176 -82 -41 -147 -77 -144 -79 5 -5 99 29 129 46 10 6 21 10 25 10 5 0 0 -5
-9 -11 -24 -14 -24 -43 0 -30 24 13 56 24 64 23 3 -1 12 5 18 13 7 8 23 15 35
15 12 0 28 7 35 15 7 8 19 15 26 15 8 0 32 11 54 25 22 14 44 25 49 25 6 0 14
7 19 17 6 10 16 14 27 9 10 -3 23 -2 29 2 6 5 22 12 36 14 14 3 34 9 45 13 45
18 -4 -15 -90 -60 -49 -26 -104 -58 -122 -71 -17 -13 -36 -24 -41 -24 -10 0
-54 -44 -76 -74 -10 -14 -36 -23 -97 -32 -46 -7 -118 -22 -159 -34 -41 -11
-113 -23 -160 -26 -47 -4 -98 -12 -115 -19 -16 -8 -60 -16 -97 -20 -37 -4 -72
-13 -78 -20 -9 -11 -8 -14 7 -13 10 0 46 -5 81 -13 40 -8 66 -10 70 -3 4 5 19
10 35 11 15 0 35 4 45 8 9 5 24 7 32 7 8 -1 35 5 60 13 l45 15 -50 -6 c-37 -4
-46 -3 -35 5 8 6 38 11 65 11 28 0 84 11 125 24 41 13 93 26 115 30 l40 7 -25
-20 c-14 -11 -47 -32 -75 -47 -27 -15 -52 -30 -55 -34 -9 -12 -72 -40 -90 -40
-9 0 -22 -6 -29 -12 -11 -10 -14 -10 -18 0 -3 6 -12 12 -20 12 -9 0 -13 -3
-10 -7 12 -12 -73 -42 -137 -49 -94 -10 -217 25 -216 60 1 6 9 29 20 51 11 22
19 43 20 47 0 4 -17 10 -37 13 -35 6 -100 33 -108 45 -2 3 31 2 73 -3 122 -13
286 -23 300 -19 19 7 14 22 -8 22 -38 0 -155 38 -224 74 -38 19 -74 32 -79 29
-6 -3 -7 -1 -3 5 3 6 -3 27 -15 47 -16 26 -27 35 -40 32 -11 -3 -17 -1 -13 4
3 5 12 9 20 9 18 0 18 -5 -11 70 -27 70 -31 110 -13 128 9 9 9 15 0 24 -10 10
-15 10 -22 -2 -8 -12 -12 -13 -19 -2 -6 10 -21 12 -54 7 -44 -7 -46 -8 -41
-35 4 -15 1 -30 -4 -34 -6 -3 -8 -15 -5 -26 3 -11 9 -18 13 -15 14 8 19 -9 23
-67 4 -55 28 -98 54 -98 7 0 14 -8 14 -17 2 -36 8 -72 19 -124 22 -105 33
-213 22 -217 -6 -2 -2 -12 9 -23 10 -10 19 -25 19 -31 0 -9 -4 -8 -10 2 -8 13
-10 12 -10 -2 0 -10 9 -27 19 -37 11 -11 15 -23 10 -28 -9 -9 8 -79 25 -102 6
-7 9 -29 7 -48 -2 -28 1 -35 18 -40 17 -4 19 -9 11 -24 -9 -15 -8 -17 7 -12
14 6 13 1 -5 -24 -22 -31 -28 -53 -14 -53 4 1 23 21 42 45 19 25 47 54 62 65
24 18 28 18 28 4 0 -14 2 -15 17 -3 15 12 16 12 10 -5 -5 -13 3 -32 25 -62
l33 -43 881 -1 882 0 33 74 c18 41 36 73 40 71 3 -2 11 -36 18 -75 l13 -70 89
0 c65 0 89 3 89 13 0 6 -7 70 -15 142 -8 72 -15 136 -15 144 0 11 31 13 188 7
103 -4 206 -9 229 -12 l41 -6 8 -91 c4 -51 6 -116 5 -144 l-3 -53 131 0 c130
0 131 0 131 23 0 13 6 29 13 36 10 10 9 11 -5 6 -13 -5 -18 -2 -18 9 0 9 7 16
15 16 8 0 15 7 15 15 0 8 -6 15 -13 15 -9 0 -14 12 -15 32 -2 50 6 67 29 61
13 -4 18 -11 14 -23 -3 -11 1 -20 10 -24 8 -3 15 -2 15 2 0 4 4 13 9 21 8 12
12 13 25 1 15 -12 15 -14 0 -31 -10 -11 -27 -19 -38 -19 -17 0 -18 -2 -6 -10
13 -8 12 -10 -2 -10 -18 0 -25 -25 -10 -34 5 -3 25 -3 44 0 29 5 35 10 30 26
-3 11 -10 17 -18 14 -26 -10 -14 2 22 24 21 12 44 18 53 14 14 -5 13 -7 -4
-14 -19 -8 -19 -9 3 -9 20 -1 22 -5 16 -23 -6 -22 -6 -22 13 -5 20 17 20 17
16 -8 -4 -20 -11 -25 -34 -25 -15 0 -31 -5 -34 -10 -3 -6 -17 -10 -31 -10 -13
0 -24 -5 -24 -12 0 -8 -6 -6 -16 4 -15 15 -19 15 -40 1 -13 -8 -21 -19 -18
-25 3 -5 12 -4 22 4 13 11 15 10 10 -9 -6 -22 -3 -23 47 -23 34 0 55 5 58 13
3 9 7 9 20 -1 9 -8 22 -12 29 -9 8 3 6 6 -6 6 -11 1 -16 6 -13 15 3 7 0 13 -6
12 -7 0 -13 4 -14 9 -2 6 6 10 18 10 11 0 23 6 28 14 5 8 14 10 22 6 11 -6 11
-5 2 5 -9 10 -9 18 -1 34 9 16 7 22 -11 34 -21 14 -30 52 -12 52 22 0 39 -13
34 -26 -3 -8 0 -14 6 -14 7 0 10 -17 8 -43 -1 -32 2 -42 13 -42 8 0 16 10 18
23 4 25 12 28 31 9 10 -10 11 -9 6 6 -6 14 -2 17 20 17 22 0 25 3 16 14 -9 11
-8 15 4 20 9 3 13 10 10 16 -10 16 20 12 54 -7 22 -13 35 -15 47 -8 26 16 12
29 -28 26 -32 -2 -38 0 -38 18 0 14 5 19 15 15 8 -4 15 -2 15 4 0 5 -7 13 -16
16 -24 9 -54 7 -54 -4 0 -5 8 -10 18 -10 12 0 11 -4 -8 -14 -17 -9 -31 -10
-44 -3 -15 7 -23 5 -33 -9 -12 -17 -15 -17 -29 -2 -11 10 -14 23 -9 38 7 22 9
23 114 16 58 -4 133 -7 165 -6 51 1 58 -1 48 -13 -10 -12 -9 -16 4 -21 25 -9
41 -7 24 4 -13 9 -13 10 0 10 8 0 25 3 38 6 19 6 22 3 22 -24 0 -16 6 -35 13
-41 18 -14 30 -2 16 16 -9 9 -8 13 0 13 6 0 11 5 11 10 0 6 -7 10 -15 10 -32
0 -13 16 20 17 34 1 48 -11 23 -20 -7 -2 -10 -8 -6 -12 5 -5 17 2 28 15 20 23
21 23 35 4 9 -11 14 -14 15 -6 0 17 191 13 197 -4 2 -7 -6 -11 -22 -10 -14 0
-25 3 -25 6 0 10 -69 10 -94 0 -16 -6 -26 -5 -28 1 -2 6 -17 3 -35 -6 -40 -20
-48 -31 -22 -31 10 0 19 4 19 8 0 4 7 8 15 8 15 0 22 -29 8 -31 -32 -3 -55
-11 -73 -26 -24 -21 -26 -39 -4 -47 8 -3 12 -10 9 -16 -3 -5 1 -10 9 -10 9 0
16 5 16 11 0 6 7 8 16 5 8 -3 12 -2 9 4 -3 6 3 10 14 10 29 0 30 -50 1 -57
-28 -7 -26 -35 3 -31 14 2 21 9 21 21 -2 20 12 23 20 5 5 -10 7 -10 12 0 3 6
11 12 17 12 7 -1 1 -10 -12 -20 l-23 -20 71 0 c54 0 71 3 71 14 0 16 -21 26
-55 26 -13 0 -27 5 -30 10 -4 6 7 10 24 10 17 0 31 5 31 10 0 6 4 10 10 10 5
0 6 -8 3 -17 -5 -13 -3 -15 13 -9 10 5 28 10 39 12 17 4 17 3 -2 -7 -15 -8
-21 -19 -19 -33 3 -20 10 -21 109 -23 l107 -3 0 107 0 106 148 -7 c212 -9 625
-34 852 -51 107 -8 250 -18 318 -21 l123 -7 25 -48 c13 -27 24 -55 24 -64 0
-8 5 -15 10 -15 13 0 13 -4 -10 60 -11 30 -20 58 -20 62 0 10 36 10 68 1 25
-6 25 -18 5 -100 -5 -23 -4 -23 106 -23 61 0 111 2 111 5 0 3 -11 27 -25 54
-13 27 -22 50 -20 52 3 3 434 -16 444 -20 2 0 0 -21 -3 -46 l-7 -45 134 0 134
0 7 40 6 40 79 0 c43 0 112 -3 155 -6 l76 -7 -6 -33 -6 -34 301 0 301 0 -1
1208 c-1 1117 -2 1201 -17 1125 l-15 -83 -146 -1 c-100 -1 -133 -4 -106 -9 22
-4 44 -6 48 -3 5 3 25 1 45 -3 l37 -8 -45 -6 -45 -7 45 -2 c33 -1 41 -4 30
-11 -12 -8 -10 -10 10 -11 14 -1 33 0 44 1 10 1 15 -3 12 -9 -4 -5 1 -14 10
-19 12 -7 15 -19 11 -48 -6 -51 -44 -194 -57 -217 -6 -10 -8 -22 -5 -27 3 -5
1 -11 -5 -15 -6 -4 -8 -11 -5 -16 4 -5 0 -9 -7 -10 -69 -6 -98 -5 -87 2 17 10
15 11 -53 39 -50 21 -61 22 -100 11 -23 -7 -70 -17 -103 -23 -65 -12 -85 -22
-85 -45 0 -18 40 -63 56 -63 7 0 14 -7 18 -15 3 -9 -13 -32 -45 -62 -47 -44
-50 -50 -44 -83 4 -19 11 -40 16 -47 7 -7 6 -14 -1 -18 -16 -10 -12 -28 6 -21
25 10 56 -12 49 -35 -4 -11 -2 -25 3 -32 16 -21 19 -69 13 -197 -5 -93 -4
-129 5 -140 24 -28 7 -67 -23 -56 -14 6 -15 9 -4 15 8 6 9 11 3 15 -6 3 -23
-5 -38 -19 -24 -22 -25 -25 -8 -26 16 0 16 -2 -4 -9 -25 -11 -28 -25 -8 -46
10 -10 17 -11 22 -3 4 8 9 7 15 -2 7 -11 13 -9 28 10 15 20 21 22 39 12 13 -7
22 -21 22 -36 0 -13 7 -30 15 -38 8 -8 15 -30 17 -49 1 -18 4 -37 7 -43 3 -5
5 -21 5 -35 1 -20 6 -25 24 -22 21 2 22 0 8 -13 -8 -8 -19 -15 -25 -15 -6 0
-11 -4 -11 -10 0 -5 7 -10 15 -10 8 0 15 -7 15 -15 0 -9 11 -20 24 -24 29 -12
34 -25 31 -83 -3 -35 1 -52 16 -70 12 -13 16 -24 9 -26 -6 -2 -20 -22 -31 -44
-17 -33 -23 -37 -35 -27 -12 9 -20 9 -38 0 -13 -7 -41 -12 -62 -11 -77 5 -114
0 -114 -14 0 -14 23 -16 36 -3 13 13 32 7 30 -9 0 -10 8 -18 23 -21 58 -9 25
-13 -120 -15 -355 -5 -395 -3 -423 16 -15 9 -49 51 -74 93 -26 41 -62 96 -80
122 -17 25 -42 65 -54 88 -12 24 -26 43 -30 43 -4 0 -8 5 -8 11 0 6 -10 25
-22 42 -27 38 -55 85 -64 110 -3 9 -10 17 -15 17 -5 0 -9 4 -9 9 0 13 -69 128
-85 141 -13 11 -15 5 -31 -105 -6 -42 -9 -46 -15 -25 -7 24 -7 24 -8 3 -1 -13
-6 -23 -12 -23 -6 0 -8 8 -5 18 2 9 10 44 16 77 7 33 16 66 20 74 4 8 1 29 -6
48 -20 48 8 93 69 107 33 8 30 2 54 136 16 91 19 100 25 70 4 -19 4 -6 0 30
-8 85 -7 106 13 290 9 85 18 177 21 203 3 27 11 80 19 118 8 39 15 81 15 94 0
22 -4 24 -41 22 -44 -2 -48 1 -67 60 -8 27 -7 35 9 49 10 9 19 24 19 33 0 9 7
27 16 39 13 19 22 21 49 16 39 -7 35 -21 60 196 48 425 86 704 96 710 31 20
799 23 1092 4 l87 -6 0 175 0 175 -45 4 c-49 3 -48 5 -60 -67 -10 -67 -15 -75
-42 -75 -25 0 -25 1 -19 63 5 55 4 58 -5 22 -6 -22 -12 -50 -14 -61 -5 -22 -5
-22 -312 -19 -247 3 -820 -11 -830 -19 -2 -2 -28 -204 -103 -831 -11 -88 -27
-205 -35 -260 -9 -55 -17 -113 -19 -130 -6 -57 -18 -130 -27 -160 -4 -16 -11
-42 -14 -56 -4 -22 -11 -27 -37 -27 -18 -1 -59 -2 -90 -3 -39 -1 -59 -6 -62
-16 -8 -19 1 -33 21 -33 10 0 14 -6 10 -20 -3 -13 0 -20 10 -20 8 0 11 5 8 10
-3 5 3 10 14 10 25 0 32 -21 12 -38 -15 -11 -14 -13 2 -26 25 -20 21 -29 -13
-24 -16 3 -30 1 -30 -3 0 -4 12 -9 28 -11 21 -2 27 -8 27 -28 0 -15 5 -24 13
-23 6 2 12 -3 13 -10 0 -6 5 -3 10 8 8 17 9 17 4 -5 -2 -14 -5 -38 -6 -55 -1
-29 -1 -29 -8 -5 l-7 24 -24 -24 c-22 -22 -23 -25 -7 -28 13 -3 16 -9 11 -20
-4 -10 -12 -32 -18 -49 -12 -38 -22 -42 -31 -14 -4 13 -11 18 -22 14 -14 -6
-14 -7 3 -14 12 -5 -3 -8 -41 -8 -38 0 -55 3 -46 8 10 6 12 19 7 45 -6 31 -11
36 -36 36 -15 0 -30 5 -32 11 -6 17 -158 12 -201 -6 -20 -8 -37 -20 -37 -25 0
-16 50 -11 68 7 16 16 17 15 20 -5 4 -26 17 -29 27 -4 6 15 8 14 16 -5 7 -19
16 -23 47 -23 82 0 134 -24 82 -37 -11 -3 -18 -8 -16 -12 3 -4 1 -13 -4 -21
-7 -11 -38 -13 -150 -12 -129 2 -141 1 -126 -13 8 -9 21 -34 27 -56 7 -21 18
-44 26 -50 7 -6 13 -19 13 -29 0 -10 7 -23 15 -30 8 -7 15 -16 15 -21 0 -16
50 -118 62 -125 6 -4 92 -6 191 -5 l180 2 -7 -78 c-7 -89 -14 -136 -51 -353
-22 -125 -25 -161 -16 -186 15 -41 14 -44 -7 -44 -16 0 -22 -22 -45 -167 -15
-92 -31 -170 -35 -174 -4 -4 -117 -1 -252 6 -135 8 -373 21 -530 30 -157 8
-352 20 -435 25 -82 5 -199 12 -259 16 l-109 6 5 169 c3 96 2 166 -3 163 -5
-3 -6 2 -3 10 5 13 -1 16 -29 16 -31 0 -34 -2 -29 -25 2 -14 -1 -31 -7 -39 -8
-10 -9 -16 -1 -21 5 -3 10 -35 10 -71 0 -50 -3 -64 -15 -64 -19 0 -19 -19 -2
-45 7 -11 14 -35 15 -52 2 -32 1 -33 -37 -33 -24 0 -44 6 -52 17 -13 15 -11
16 16 9 29 -7 29 -7 10 8 -11 8 -28 16 -38 16 -10 0 -20 7 -24 17 -5 14 -8 12
-15 -7 -6 -15 -5 -26 3 -30 14 -9 -39 -28 -63 -22 -10 2 -18 10 -18 17 0 11 8
13 30 8 37 -7 41 14 5 23 -14 3 -25 12 -25 20 0 16 -16 19 -25 4 -3 -6 -13
-10 -21 -10 -11 0 -13 6 -9 20 8 25 -11 51 -30 44 -7 -3 -23 4 -34 15 -18 18
-19 22 -7 27 8 3 20 3 26 -1 5 -3 10 1 10 9 0 8 -5 18 -10 21 -6 4 -8 11 -4
16 4 6 11 6 20 -2 8 -6 17 -9 21 -5 3 3 2 6 -4 6 -6 0 -10 12 -10 26 0 14 3
21 6 15 8 -12 61 7 61 22 0 4 5 7 11 7 15 0 1 -62 -17 -76 -18 -14 -18 -24 -1
-24 12 0 39 41 41 62 2 18 16 18 28 -1 7 -12 19 -21 26 -21 8 0 10 5 5 13 -12
19 -14 49 -3 42 5 -3 10 -13 10 -21 0 -8 5 -14 10 -14 6 0 10 12 10 26 0 21 4
24 20 19 23 -7 63 12 55 26 -4 5 -10 7 -15 4 -4 -3 -6 3 -4 12 5 16 -4 18 -75
18 -87 0 -101 -6 -80 -32 12 -15 12 -16 -4 -10 -11 4 -20 1 -24 -9 -4 -12 -14
-14 -39 -9 -25 4 -34 2 -34 -8 0 -7 -14 -26 -30 -40 -22 -20 -30 -23 -30 -12
0 8 6 15 14 15 23 0 26 14 10 44 -18 35 -18 33 6 39 11 3 20 13 20 22 0 14 -6
16 -29 12 -16 -4 -31 -2 -33 2 -2 5 -53 12 -114 16 l-110 6 -12 -26 c-15 -33
-29 -32 -37 5 -7 34 -27 38 -82 18 -36 -13 -48 -44 -13 -33 23 7 25 2 10 -26
-7 -12 -7 -19 -1 -19 6 0 8 -16 6 -35 -4 -30 -2 -35 15 -35 26 0 25 -12 0 -35
-12 -10 -19 -24 -16 -31 3 -7 0 -15 -7 -18 -9 -5 -9 -7 1 -12 21 -10 13 -22
-18 -26 -16 -3 -35 0 -41 6 -8 8 -10 7 -7 -4 3 -9 21 -17 49 -20 32 -4 39 -7
26 -13 -11 -4 -23 -5 -28 -1 -5 3 -9 0 -9 -5 0 -6 8 -11 18 -11 10 0 4 -7 -16
-17 -36 -17 -58 -9 -30 11 20 15 14 26 -15 26 -13 0 -17 5 -13 15 5 13 -4 19
-24 17 -3 0 -5 11 -4 26 1 28 22 42 34 22 6 -10 14 -7 31 10 18 17 19 21 7 17
-12 -4 -18 -1 -18 8 0 18 -1 18 -36 0 -19 -9 -32 -11 -38 -5 -17 17 -27 11
-17 -9 6 -10 7 -22 3 -26 -4 -5 -1 -5 6 -1 7 4 12 1 12 -9 0 -12 -7 -14 -32
-10 -17 3 -35 8 -39 11 -4 2 -10 0 -14 -6 -3 -5 -1 -10 5 -10 7 0 10 -6 8 -12
-3 -7 -22 -15 -44 -18 -34 -4 -39 -9 -42 -34 l-4 -29 -60 7 c-34 3 -71 6 -84
6 -13 0 -28 9 -33 19 -10 18 -7 19 49 17 54 -1 59 0 54 16 -3 10 -2 18 3 17
20 -4 53 2 53 9 0 4 -17 7 -37 6 -63 -3 -103 7 -103 26 0 33 25 43 64 26 20
-8 37 -14 37 -13 1 1 3 18 4 38 1 21 5 45 9 55 6 16 8 16 16 4 8 -12 10 -11
10 7 0 12 7 28 15 37 20 19 19 26 -2 26 -11 0 -14 3 -7 8 6 4 14 14 17 22 4
12 6 12 6 -2 1 -11 12 -20 29 -24 15 -4 33 -11 40 -17 8 -6 12 -6 12 2 0 6 -4
11 -10 11 -14 0 -12 47 3 54 6 4 -13 4 -42 1 -34 -3 -58 -10 -63 -19 -25 -45
-62 -77 -82 -72 -12 3 -28 1 -36 -4 -13 -9 -13 -11 0 -20 19 -13 37 -13 61 0
10 6 19 7 19 2 0 -5 -11 -15 -25 -22 -14 -7 -25 -17 -25 -22 0 -16 -29 -8 -33
9 -2 10 -8 -1 -12 -24 -4 -24 -11 -43 -16 -43 -13 0 -11 57 4 81 10 17 10 23
0 26 -18 6 -16 43 1 43 8 0 17 6 20 13 3 9 9 7 19 -6 14 -16 15 -15 12 15 -2
27 -7 33 -24 32 -13 0 -20 4 -17 11 6 17 -39 23 -221 31 -137 6 -153 9 -153
25 0 16 77 205 120 294 10 22 22 52 26 68 3 15 10 30 15 33 11 6 12 51 2 57
-5 2 -2 2 5 1 6 -2 12 4 12 14 0 9 9 28 20 42 11 14 20 30 20 35 0 6 12 32 26
59 14 27 27 54 29 60 1 6 7 22 13 36 10 21 11 16 7 -31 -5 -56 -5 -56 20 -51
14 2 31 -1 38 -7 17 -13 88 20 99 47 5 12 7 7 7 -15 1 -19 8 -37 19 -45 10 -7
21 -21 25 -31 6 -17 10 -16 42 9 19 14 38 38 41 53 12 57 23 73 47 67 12 -3
34 -6 50 -6 32 0 37 -17 5 -22 -28 -4 -36 -28 -9 -28 12 0 21 -4 21 -10 0 -5
7 -7 16 -3 13 5 15 16 11 60 -5 46 -4 53 9 43 11 -10 15 -9 20 4 4 12 19 16
54 16 44 0 49 -2 58 -29 11 -30 31 -35 68 -14 24 14 44 1 44 -28 0 -10 5 -21
10 -24 6 -3 10 1 10 9 0 8 9 18 20 21 11 3 20 13 20 21 0 10 13 14 49 14 42 0
48 -2 44 -18 -3 -12 4 -23 22 -32 18 -10 25 -20 21 -33 -4 -16 -1 -18 20 -13
24 6 33 -7 14 -19 -6 -4 -8 -11 -5 -16 4 -5 0 -9 -8 -9 -8 0 -17 7 -21 15 -8
22 -23 18 -31 -7 -12 -39 -12 -58 -1 -60 6 0 16 -2 21 -2 6 -1 16 -5 23 -10 8
-5 18 -4 25 3 9 9 6 13 -11 17 -12 4 -22 10 -22 15 0 13 47 11 55 -2 4 -6 14
-8 22 -5 8 3 12 2 9 -2 -2 -4 -1 -14 4 -22 7 -12 11 -12 26 1 16 13 17 12 11
-4 -4 -10 -7 -21 -7 -23 0 -2 -7 -4 -15 -4 -8 0 -24 -6 -35 -12 -16 -10 -24
-10 -40 0 -27 17 -33 15 -27 -8 4 -17 0 -20 -34 -20 -30 0 -39 4 -39 18 -1 15
-2 15 -13 1 -13 -16 -87 -49 -111 -49 -8 0 -21 7 -29 15 -13 12 -15 12 -20 -5
-7 -28 -26 -25 -37 5 -11 29 -40 24 -40 -6 0 -20 -15 -26 -25 -9 -3 6 -19 10
-35 10 -30 0 -47 14 -30 25 22 13 8 25 -30 25 -29 0 -40 4 -40 15 0 10 -10 15
-30 15 -23 0 -30 -5 -30 -19 0 -14 6 -17 25 -13 14 2 25 2 25 -2 0 -12 -73
-36 -110 -36 -24 0 -43 -7 -55 -20 -10 -11 -23 -20 -30 -20 -6 0 -16 -5 -23
-12 -23 -23 -69 -19 -101 9 -17 15 -31 33 -31 40 0 20 -21 16 -81 -15 -31 -16
-61 -26 -67 -24 -7 2 -12 -2 -12 -10 0 -22 60 -42 128 -42 62 -1 81 -11 82
-42 0 -23 -63 -42 -121 -37 -45 4 -60 2 -78 -13 -11 -10 -21 -24 -21 -31 0
-12 -26 -18 -57 -14 -17 2 -16 -7 2 -25 8 -9 15 -11 15 -6 0 6 10 8 21 5 21
-6 21 -7 4 -20 -17 -12 -14 -13 23 -13 33 0 42 -4 42 -17 0 -13 3 -14 12 -5 9
9 6 16 -12 32 -31 27 -16 25 29 -2 27 -18 48 -22 86 -20 28 2 69 -4 94 -12 24
-9 44 -16 46 -16 1 0 1 10 1 23 -1 16 5 22 21 22 11 0 25 3 29 7 4 5 26 8 50
8 33 0 43 -4 47 -20 3 -14 14 -20 32 -20 31 0 81 -24 88 -42 3 -9 9 -7 21 7
15 20 15 19 16 -7 0 -16 6 -28 13 -28 21 0 94 -55 90 -67 -3 -8 4 -13 17 -13
13 0 24 8 27 20 4 16 14 20 49 20 24 0 44 3 44 8 0 4 -20 6 -45 4 -30 -3 -45
0 -45 8 0 7 -11 26 -25 42 -37 44 -18 62 38 36 30 -14 37 -47 10 -49 -10 -1 9
-5 42 -10 81 -12 94 -17 75 -29 -8 -6 -11 -10 -6 -10 5 0 3 -6 -3 -14 -9 -11
-8 -15 5 -20 9 -3 20 -3 25 0 6 3 16 0 24 -6 13 -11 99 -7 147 6 33 9 20 41
-22 60 -22 10 -40 21 -40 25 0 4 15 12 33 19 28 10 30 13 12 19 -15 6 -11 9
20 13 22 3 54 5 70 3 17 -1 42 -3 58 -3 20 -2 27 -7 27 -22 0 -26 13 -25 53 2
75 51 87 58 97 58 5 0 10 15 10 34 0 19 4 37 9 40 12 8 13 116 1 116 -6 0 -10
9 -10 20 0 28 -32 38 -120 38 -58 0 -78 4 -100 21 -23 17 -29 18 -34 6 -3 -8
-14 -15 -25 -15 -15 0 -18 5 -14 23 10 37 34 57 71 57 20 0 32 3 29 7 -4 3 -2
12 4 20 9 10 8 17 -1 28 -16 19 -31 19 -24 0 4 -10 0 -15 -11 -15 -12 0 -15
-5 -11 -17 4 -10 4 -14 -1 -10 -4 5 -8 24 -9 43 0 22 2 30 7 22 7 -10 9 -9 9
5 0 9 -5 17 -12 17 -6 0 -19 7 -29 16 -18 16 -15 53 5 56 6 0 16 2 22 2 6 1
18 7 27 14 25 21 63 4 83 -38 15 -31 22 -36 36 -29 9 5 24 6 32 3 9 -3 16 -1
16 5 0 7 -8 15 -17 19 -26 10 54 21 87 12 14 -4 35 -3 48 1 16 6 22 5 22 -6 0
-18 28 -45 46 -45 9 0 14 7 12 19 -4 23 29 61 51 61 13 0 13 -2 3 -9 -10 -6
-7 -10 13 -15 20 -5 25 -11 20 -25 -4 -15 1 -20 28 -25 19 -4 46 -2 60 3 26
10 47 -1 27 -14 -16 -10 -1 -25 24 -25 31 0 54 26 38 42 -9 9 -12 9 -12 0 0
-7 -4 -12 -10 -12 -21 0 -9 18 21 33 25 12 32 22 34 48 4 46 -3 53 -31 35 -35
-24 -115 -21 -148 5 -14 11 -24 25 -21 30 4 5 1 17 -4 26 -6 10 -11 13 -11 7
0 -6 -19 -14 -41 -17 -23 -3 -47 -11 -53 -17 -8 -8 -6 -9 8 -4 13 5 17 3 14
-6 -7 -22 -79 -42 -123 -35 -55 8 -85 30 -86 63 l-1 27 -8 -25 c-7 -23 -8 -21
-9 12 -1 20 3 38 8 40 5 2 7 16 4 32 l-6 29 -13 -24 c-7 -13 -13 -33 -14 -45
0 -12 -9 -31 -20 -44 -11 -12 -17 -26 -15 -30 12 -20 -84 -27 -130 -10 -20 8
-24 15 -20 32 13 51 -67 55 -121 6 -12 -10 -43 -21 -72 -25 -42 -5 -59 -1
-101 20 -31 15 -51 21 -52 14 0 -7 -8 4 -16 23 l-16 35 -10 -27 c-13 -34 -45
-48 -109 -48 -44 0 -55 4 -82 33 -27 28 -37 32 -73 29 -29 -2 -43 -8 -43 -18
0 -24 -20 -16 -31 12 -9 25 -11 26 -28 10 -9 -9 -20 -14 -23 -11 -11 11 -162
14 -175 3 -16 -13 -16 -8 -3 28 l11 27 181 -7 180 -7 -6 35 c-7 35 -5 37 44
68 49 30 50 32 35 54 -16 25 -17 134 -1 134 4 0 5 11 2 24 -4 18 -1 28 11 35
14 8 15 10 3 11 -13 0 -13 1 0 10 10 6 11 10 3 10 -7 0 -13 7 -13 15 0 8 7 15
15 15 20 0 11 59 -12 75 -26 19 -9 64 27 72 17 3 30 9 30 13 0 5 -16 28 -36
52 -47 57 -46 55 -39 33 3 -11 -1 -7 -10 9 -14 24 -15 30 -3 37 7 6 -31 7 -94
3 -125 -8 -130 -5 -147 76 -15 71 -4 84 57 67 41 -11 57 -27 27 -27 -20 0 -19
-10 3 -26 9 -7 39 -14 66 -14 40 0 47 3 42 16 -4 9 -1 23 6 32 11 13 10 15
-11 9 -14 -3 -20 -2 -15 3 5 5 28 6 52 3 34 -5 46 -11 53 -30 9 -24 16 -24 83
-6 14 4 17 1 13 -11 -4 -9 -10 -23 -13 -31 -3 -8 -1 -15 5 -15 6 0 11 -7 11
-16 0 -8 -4 -13 -9 -9 -5 3 -12 1 -16 -5 -4 -6 -10 -8 -15 -5 -11 7 0 -66 13
-82 5 -7 29 -13 52 -13 43 0 43 0 47 40 2 22 0 40 -5 40 -5 0 -5 10 -2 21 5
15 4 19 -4 15 -6 -4 -11 -14 -11 -22 0 -22 -16 -17 -28 10 -11 24 -10 25 28
24 l38 0 -4 -64 c-4 -67 -2 -68 44 -67 6 1 12 -3 12 -7 0 -8 -68 -19 -75 -12
-11 11 -75 8 -75 -4 0 -15 96 -24 110 -10 6 6 15 4 25 -4 11 -9 18 -10 29 -1
7 6 22 9 32 5 14 -4 16 -3 5 4 -11 8 -11 11 0 16 8 3 4 4 -8 2 -25 -4 -32 9
-9 17 7 3 34 8 58 12 39 6 46 4 49 -12 7 -31 -6 -138 -16 -140 -6 -1 -48 -9
-93 -18 -45 -9 -89 -15 -96 -12 -22 9 -27 -5 -9 -25 9 -10 26 -19 37 -19 17
-1 18 -2 4 -6 -22 -5 -24 -31 -3 -39 8 -4 15 -13 15 -21 0 -10 6 -12 19 -8 23
7 38 -10 16 -19 -14 -5 -14 -9 -1 -34 19 -37 61 -65 86 -57 33 10 23 25 -17
26 -33 0 -35 1 -15 9 12 5 29 7 37 3 9 -3 15 -2 14 3 -3 19 1 35 9 30 14 -8 4
-124 -14 -151 -15 -23 -15 -25 0 -25 10 0 16 -8 16 -21 0 -15 4 -19 16 -15 14
6 16 0 11 -40 -3 -29 -1 -47 7 -49 62 -19 65 -17 63 25 -1 21 2 42 5 45 3 4
40 9 82 12 78 6 130 -6 140 -33 5 -12 11 -11 41 3 42 20 43 26 10 41 -14 7
-28 20 -32 29 -3 10 -20 30 -37 45 -26 23 -29 29 -16 38 12 8 11 10 -7 10 -13
0 -23 6 -23 14 0 8 -3 16 -7 18 -33 14 -93 161 -93 226 0 66 56 101 195 122
127 18 125 18 121 43 -3 21 -7 22 -148 25 -120 2 -147 0 -158 -13 -15 -18 -51
-20 -47 -2 1 7 -12 13 -35 15 -29 2 -38 -1 -38 -12 0 -10 -6 -13 -15 -10 -8 4
-15 12 -15 20 0 13 -13 19 -33 15 -5 -1 -6 3 -2 9 3 5 -1 10 -10 10 -9 0 -13
5 -10 10 8 14 -8 13 -22 -1 -7 -7 -22 -9 -40 -4 -15 4 -22 10 -16 12 7 3 13
10 13 16 -1 7 -8 3 -18 -8 -18 -21 -35 -25 -48 -12 -5 4 -2 12 6 17 10 7 11
10 3 10 -7 0 -13 5 -13 10 0 6 9 10 20 10 11 0 20 -4 20 -8 0 -4 16 -6 35 -4
19 2 42 -1 49 -7 23 -19 85 -4 83 20 -1 10 -4 19 -8 19 -10 0 -19 40 -12 56 4
10 19 12 55 9 61 -5 75 -16 61 -47 -6 -13 -7 -32 -3 -43 4 -11 6 -23 4 -27
-11 -19 337 -50 349 -31 8 13 26 505 37 998 5 226 11 430 14 455 6 55 23 356
31 536 5 122 4 132 -12 130 -11 0 -17 5 -17 17 1 12 -6 17 -27 17 -22 0 -29
-5 -29 -19 0 -10 -6 -21 -13 -24 -20 -8 -87 16 -87 30 0 7 -4 13 -10 13 -5 0
-10 -23 -10 -51 0 -31 -4 -48 -10 -44 -6 3 -10 26 -10 51 l0 44 -41 0 c-24 0
-38 -4 -34 -10 9 -14 -13 -50 -30 -50 -10 0 -15 10 -15 30 l0 30 -109 0 c-106
0 -110 -1 -114 -22 l-4 -23 -2 23 c-1 22 -3 22 -151 22 -127 0 -150 -2 -150
-15 0 -8 -8 -16 -17 -16 -58 -4 -118 1 -143 11 -16 7 -34 9 -39 5 -6 -3 -11
-1 -11 4 0 6 -9 11 -19 11 -14 0 -18 -5 -14 -19 2 -10 -3 -25 -12 -35 -9 -9
-11 -16 -5 -16 8 0 8 -6 -1 -21 -9 -17 -8 -20 2 -14 9 6 11 3 6 -9 -4 -10 -1
-23 7 -31 7 -8 17 -34 20 -59 8 -51 -6 -81 -38 -81 -32 0 -29 23 4 30 26 6 29
9 19 21 -8 9 -15 11 -18 5 -4 -6 -16 -8 -28 -5 -19 5 -21 11 -16 38 6 27 5 29
-8 16 -11 -11 -14 -41 -12 -120 0 -58 3 -109 4 -115 2 -5 -5 -20 -16 -32 -16
-19 -30 -23 -76 -23 -59 0 -79 15 -56 40 10 10 4 11 -25 7 -26 -4 -35 -2 -32
6 2 7 26 12 57 12 48 0 52 2 49 23 -2 15 2 22 12 22 9 0 16 5 16 10 0 13 -3
13 -34 -1 -14 -7 -33 -8 -43 -5 -17 7 -17 8 0 20 17 13 17 14 -2 19 -23 6 -53
-12 -34 -20 30 -11 8 -19 -59 -21 -40 -1 -75 -7 -79 -13 -5 -9 -19 10 -19 26
0 2 28 5 63 7 l62 3 -3 30 c-3 29 -19 48 -33 39 -4 -2 -10 0 -14 6 -3 5 1 10
10 10 21 0 30 27 16 44 -8 10 -9 16 -1 21 13 8 13 45 -1 45 -5 0 -7 -5 -3 -12
5 -7 2 -9 -7 -6 -11 4 -14 -3 -11 -32 3 -28 0 -39 -14 -44 -10 -4 -21 -1 -25
6 -5 7 -12 13 -16 13 -4 0 -23 15 -40 32 -28 27 -33 40 -34 80 -1 26 -5 59
-10 73 -6 17 -7 3 -4 -45 5 -79 14 -156 21 -166 4 -8 -20 -19 -42 -19 -10 0
-14 13 -14 49 0 28 -4 53 -10 56 -6 3 -10 1 -10 -6 0 -31 -18 10 -22 49 -3 31
0 41 9 38 9 -4 13 6 13 34 0 36 -2 40 -26 40 -26 0 -26 -1 -20 -52 3 -29 8
-83 12 -121 3 -37 10 -70 15 -73 11 -6 12 -48 2 -58 -10 -9 -3 -109 8 -121 5
-5 9 -17 9 -26 0 -10 10 -19 23 -22 12 -2 -99 -4 -248 -5 -161 0 -256 3 -235
8 19 5 38 6 42 4 5 -3 12 6 18 20 5 14 14 26 19 26 5 0 11 25 13 55 3 47 1 55
-16 57 -21 3 -41 54 -25 64 14 8 11 66 -6 114 -16 46 -19 74 -7 67 4 -3 16 -1
27 4 18 7 18 8 -5 8 -14 1 -32 6 -40 11 -13 9 -12 12 4 25 18 13 -13 15 -278
15 -237 0 -297 -3 -289 -12 13 -18 15 -68 3 -68 -6 0 -10 -5 -10 -10 0 -6 5
-9 11 -8 6 2 13 -1 15 -7 2 -5 -8 -11 -22 -11 -18 -2 -24 2 -20 12 3 8 -1 14
-10 14 -8 0 -13 -4 -9 -9 3 -5 1 -12 -5 -16 -5 -3 -10 3 -10 15 0 12 -4 19 -9
16 -5 -3 -30 14 -57 39 l-48 45 -988 0 -988 0 0 -461z m2670 437 c0 -11 -19
-15 -25 -6 -3 5 1 10 9 10 9 0 16 -2 16 -4z m-1935 -56 c21 -24 29 -70 12 -70
-17 -1 32 -40 49 -40 8 0 14 -6 14 -14 0 -10 -19 -18 -52 -25 -190 -38 -268
-55 -302 -67 -66 -24 -86 -14 -48 24 14 14 16 25 10 50 -5 18 -13 32 -20 32
-20 0 15 31 63 56 67 33 188 73 225 74 19 0 38 -8 49 -20z m3188 13 c8 -13
-25 -157 -36 -165 -19 -12 -24 0 -32 67 -9 84 -2 105 35 105 16 0 31 -3 33 -7z
m-163 -47 c0 -45 -3 -44 -24 5 -14 33 -13 35 5 35 16 0 19 -7 19 -40z m274
-12 c4 -11 1 -14 -11 -12 -9 2 -18 9 -21 16 -6 18 25 15 32 -4z m96 -5 c0 -15
-5 -20 -22 -17 -31 4 -33 38 -2 38 18 0 24 -5 24 -21z m-302 -82 c-11 -29 -31
-31 -36 -4 -2 10 3 17 13 17 11 0 16 8 15 23 -4 47 2 62 11 27 5 -22 4 -45 -3
-63z m732 63 c0 -7 8 -9 20 -5 11 3 29 3 41 0 17 -6 19 -12 13 -38 -4 -18 -7
-39 -6 -49 1 -20 -19 -25 -85 -22 -35 2 -53 -1 -53 -9 0 -6 -7 -1 -16 11 -19
27 -44 29 -51 3 -6 -25 -34 -32 -63 -16 -21 11 -21 13 -4 19 16 6 15 9 -10 29
-20 16 -27 30 -24 47 3 22 9 26 53 30 108 11 185 11 185 0z m-790 -111 c0 -60
5 -109 12 -122 7 -12 13 -37 14 -54 2 -31 0 -33 -33 -33 l-35 0 5 50 c3 28 1
50 -4 50 -5 0 -9 -4 -9 -10 0 -24 -18 -7 -22 20 -4 30 3 35 40 31 9 -1 12 21
12 84 0 50 4 85 10 85 6 0 10 -40 10 -101z m280 66 c0 -8 -4 -15 -10 -15 -5 0
-10 -6 -10 -14 0 -9 -7 -12 -20 -9 -21 6 -24 12 -14 37 8 21 54 21 54 1z m70
8 c-1 -10 -26 -43 -32 -43 -4 0 -4 39 1 48 3 6 31 1 31 -5z m-3830 -23 c0 -5
8 -10 19 -10 12 0 20 -9 24 -27 3 -16 3 -30 1 -32 -6 -6 -102 -19 -144 -20
-20 0 -46 8 -60 19 l-25 19 25 10 25 10 -25 1 c-14 1 9 10 50 20 89 21 110 23
110 10z m3035 -50 c-8 -13 -45 -13 -65 0 -11 7 -3 10 28 10 26 0 41 -4 37 -10z
m-2622 -22 c3 -10 7 -10 20 0 12 10 21 11 36 3 11 -6 33 -11 50 -11 34 0 45
-15 54 -72 6 -37 5 -37 -31 -43 -20 -4 -71 -13 -112 -20 -41 -8 -116 -19 -167
-26 -80 -10 -94 -10 -107 4 -19 19 -20 34 -3 40 8 4 7 6 -3 6 -9 1 -16 12 -16
26 -2 18 3 25 17 25 11 0 27 4 37 9 68 36 109 52 143 55 22 2 43 6 46 10 11
10 31 7 36 -6z m2472 2 c3 -5 1 -10 -4 -10 -6 0 -11 5 -11 10 0 6 2 10 4 10 3
0 8 -4 11 -10z m165 -20 c0 -11 -2 -20 -4 -20 -2 0 -6 9 -9 20 -3 11 -1 20 4
20 5 0 9 -9 9 -20z m460 -6 c0 -8 -4 -12 -10 -9 -5 3 -10 10 -10 16 0 5 5 9
10 9 6 0 10 -7 10 -16z m-3497 -15 c-28 -10 -32 -20 -22 -46 5 -14 17 -23 29
-23 11 0 20 -4 20 -10 0 -5 -7 -10 -17 -10 -9 0 -13 -3 -9 -7 8 -8 -68 -33
-101 -33 -13 0 -23 4 -23 9 0 5 -10 11 -22 13 -14 2 -23 10 -23 20 0 9 -4 20
-8 24 -20 21 17 49 90 67 54 14 125 11 86 -4z m2417 11 c0 -5 -4 -10 -10 -10
-5 0 -10 5 -10 10 0 6 5 10 10 10 6 0 10 -4 10 -10z m-120 -10 c14 -4 19 -8
11 -9 -11 -1 -9 -7 7 -24 28 -30 28 -37 -2 -37 -34 0 -126 40 -126 56 0 19 67
28 110 14z m113 -17 c-7 -2 -19 -2 -25 0 -7 3 -2 5 12 5 14 0 19 -2 13 -5z
m747 -41 c0 -5 -7 -9 -15 -9 -8 0 -12 4 -9 9 3 4 9 8 15 8 5 0 9 -4 9 -8z
m-942 -19 c6 -19 -25 -16 -32 3 -4 11 -1 14 11 12 9 -2 18 -9 21 -15z m2062
-8 c0 -16 -6 -25 -15 -25 -9 0 -15 9 -15 25 0 16 6 25 15 25 9 0 15 -9 15 -25z
m-1310 -35 c0 -6 -4 -9 -9 -6 -5 3 -23 1 -40 -5 -32 -11 -48 -8 -38 8 8 13 87
15 87 3z m-699 -10 c10 -6 19 -15 19 -20 0 -11 -157 -7 -167 5 -5 4 18 5 49 2
43 -4 58 -2 62 9 6 17 11 17 37 4z m-2241 -10 c0 -5 -21 -9 -47 -9 -47 2 -47
2 -13 9 52 11 60 11 60 0z m2060 0 c0 -5 -4 -10 -10 -10 -5 0 -10 5 -10 10 0
6 5 10 10 10 6 0 10 -4 10 -10z m-1725 -10 c3 -5 -1 -10 -9 -10 -9 0 -19 0
-23 -1 -4 0 -9 4 -11 10 -5 14 35 14 43 1z m202 -37 c32 -25 34 -28 17 -40
-10 -7 -28 -13 -41 -13 -14 0 -23 -6 -23 -15 0 -8 -10 -16 -22 -16 l-23 -2 23
-4 c43 -8 21 -20 -73 -38 -63 -12 -111 -15 -143 -11 -26 4 -56 9 -67 11 -11 1
-23 3 -26 4 -3 0 -6 8 -6 15 0 8 3 14 6 14 17 -3 60 16 65 28 4 10 14 13 33 8
19 -5 25 -3 18 4 -5 5 -19 12 -29 14 -11 1 -21 9 -24 17 -3 9 0 11 7 7 7 -4
17 -3 24 2 24 20 114 41 180 41 59 1 73 -3 104 -26z m288 10 c-16 -9 -37 -25
-47 -37 -12 -15 -17 -17 -18 -7 0 24 42 61 69 61 l26 -1 -30 -16z m-301 -88
c-4 -8 -10 -12 -15 -9 -14 8 -10 24 6 24 9 0 12 -6 9 -15z m-479 -5 c-3 -5
-15 -10 -25 -10 -10 0 -22 5 -25 10 -4 6 7 10 25 10 18 0 29 -4 25 -10z m1389
-48 c3 -5 -1 -9 -9 -9 -8 0 -15 4 -15 9 0 4 4 8 9 8 6 0 12 -4 15 -8z m-61
-18 c3 -3 3 -12 0 -20 -4 -10 -10 -11 -24 -3 -11 5 -17 14 -14 20 7 10 28 12
38 3z m-43 -35 c13 -9 12 -10 -2 -5 -10 3 -18 1 -18 -4 0 -5 8 -19 18 -30 21
-25 19 -34 -9 -40 -25 -6 -38 -30 -17 -30 8 0 20 -12 27 -27 8 -16 18 -36 23
-47 7 -13 6 -16 -2 -11 -7 4 -10 1 -9 -6 2 -8 -5 -29 -15 -48 l-18 -35 -14 33
c-17 41 -18 58 -1 64 7 4 6 6 -5 6 -9 1 -18 -7 -21 -16 -4 -17 -4 -17 -12 1
-5 12 -3 21 6 27 10 6 7 9 -11 9 -21 0 -29 8 -39 35 -13 36 -7 95 10 95 5 0 9
-7 9 -15 0 -25 37 0 44 30 7 27 30 32 56 14z m-890 -39 c0 -11 -4 -20 -10 -20
-5 0 -7 6 -4 14 3 8 -2 16 -13 19 -14 4 -14 5 5 6 16 1 22 -5 22 -19z m45 1
c3 -5 1 -12 -5 -16 -5 -3 -10 1 -10 9 0 18 6 21 15 7z m345 -32 c0 -6 -4 -7
-10 -4 -5 3 -10 11 -10 16 0 6 5 7 10 4 6 -3 10 -11 10 -16z m147 -9 c0 -23
-5 -30 -16 -28 -20 4 -27 38 -9 49 21 14 25 11 25 -21z m-680 14 c-3 -3 -12
-4 -19 -1 -8 3 -5 6 6 6 11 1 17 -2 13 -5z m713 -10 c0 -8 -4 -12 -10 -9 -5 3
-10 10 -10 16 0 5 5 9 10 9 6 0 10 -7 10 -16z m794 -13 c4 -6 -44 -111 -59
-129 -8 -10 -35 14 -35 32 0 17 2 18 10 6 9 -13 12 -12 25 4 17 22 20 50 5 41
-5 -3 -10 1 -10 10 0 10 -5 13 -12 9 -10 -6 -9 -3 0 8 8 9 23 19 35 21 12 2
25 5 29 6 4 0 9 -3 12 -8z m1813 -13 c-3 -8 -6 -5 -6 6 -1 11 2 17 5 13 3 -3
4 -12 1 -19z m-3134 1 c-6 -6 -9 -18 -6 -25 3 -8 -1 -14 -10 -14 -8 0 -17 -6
-20 -12 -3 -9 -12 -6 -29 10 -17 15 -39 24 -66 25 -56 2 -43 11 26 18 99 11
117 10 105 -2z m1191 -15 c7 -28 -7 -54 -30 -54 -8 0 -14 -6 -14 -12 0 -7 -7
-2 -16 11 -11 16 -13 26 -6 33 6 6 8 16 5 23 -4 12 12 21 43 24 7 0 15 -11 18
-25z m2186 -20 c0 -22 6 -37 15 -40 12 -5 15 -31 15 -151 0 -134 1 -145 18
-138 23 10 268 22 312 15 19 -3 44 -10 55 -17 19 -11 19 -12 1 -66 -23 -68
-55 -104 -101 -113 -19 -3 -35 -8 -35 -10 0 -2 9 -13 20 -24 17 -17 29 -20 73
-15 l52 5 -37 -14 c-78 -30 -338 -53 -518 -46 -36 2 -40 3 -20 9 16 5 24 13
22 24 -2 9 4 17 11 17 24 0 38 26 31 54 -7 28 -24 36 -24 11 0 -12 -29 -24
-30 -12 0 1 -3 97 -6 212 -4 151 -9 222 -20 252 -14 39 -14 44 3 62 14 15 34
21 83 23 36 2 68 2 73 0 4 -2 7 -19 7 -38z m366 -13 c-1 -22 -4 -43 -8 -47 -5
-4 -8 14 -8 39 0 26 4 47 8 47 5 0 8 -18 8 -39z m-2253 -38 c5 -62 15 -165 36
-393 4 -47 8 -86 7 -87 -1 -1 -13 -4 -29 -8 -22 -6 -27 -4 -28 11 0 11 -3 14
-6 7 -2 -7 -9 -13 -14 -13 -20 0 -40 53 -53 144 -13 97 -12 141 5 152 13 7 11
61 -2 70 -6 3 -8 17 -5 30 5 18 0 31 -20 50 -14 15 -26 38 -27 52 -2 22 4 28
38 38 22 7 52 13 66 13 25 1 27 -2 32 -66z m1657 26 c0 -18 -4 -28 -10 -24 -5
3 -10 20 -10 36 0 18 4 28 10 24 6 -3 10 -20 10 -36z m-2030 -54 c-7 -8 -16
-15 -21 -15 -13 0 -11 24 3 38 18 18 35 -3 18 -23z m83 -15 c6 -14 9 -29 8
-35 -1 -5 8 1 19 15 11 14 20 19 20 13 0 -7 7 -13 15 -13 20 0 19 -13 -2 -26
-21 -12 -159 -18 -166 -7 -3 5 1 17 9 28 8 10 14 16 14 12 0 -4 15 8 32 28 20
21 34 30 37 23 2 -7 8 -24 14 -38z m-1278 30 c3 -5 1 -10 -4 -10 -6 0 -11 5
-11 10 0 6 2 10 4 10 3 0 8 -4 11 -10z m865 -40 c0 -5 -4 -10 -10 -10 -5 0
-10 5 -10 10 0 6 5 10 10 10 6 0 10 -4 10 -10z m120 -25 c0 -10 -9 -15 -27
-14 -17 1 -21 3 -10 6 9 2 17 9 17 14 0 5 5 9 10 9 6 0 10 -7 10 -15z m-27
-31 c7 -8 -16 -33 -25 -28 -9 6 1 34 11 34 4 0 10 -3 14 -6z m2817 -105 c0
-11 -4 -18 -10 -14 -5 3 -7 12 -3 20 7 21 13 19 13 -6z m-2530 -64 c3 -63 2
-65 -31 -65 -26 0 -30 3 -24 18 3 9 9 31 12 47 7 36 23 59 34 48 4 -4 8 -26 9
-48z m650 -49 c0 -3 -4 -8 -10 -11 -5 -3 -10 -1 -10 4 0 6 5 11 10 11 6 0 10
-2 10 -4z m-667 -108 c-17 -8 -29 -8 -45 0 -20 9 -18 11 22 11 40 0 42 -2 23
-11z m685 -85 c-4 -28 -4 -28 -14 7 -7 24 -7 38 0 46 13 14 19 -11 14 -53z
m-58 21 c0 -8 -4 -14 -10 -14 -5 0 -10 2 -10 4 0 2 -3 12 -6 20 -5 12 -2 15
10 10 9 -3 16 -12 16 -20z m-284 -39 c2 -23 -2 -25 -38 -25 -21 0 -37 4 -34 9
3 4 -6 6 -19 3 -14 -2 -25 -2 -25 2 0 11 51 32 83 34 28 2 32 -1 33 -23z
m-339 9 c-3 -3 -12 -4 -19 -1 -8 3 -5 6 6 6 11 1 17 -2 13 -5z m40 -10 c-3 -3
-12 -4 -19 -1 -8 3 -5 6 6 6 11 1 17 -2 13 -5z m1963 -101 c0 -2 -4 -3 -10 -3
-5 0 -10 7 -10 15 0 8 -11 17 -25 21 -29 7 -32 19 -8 32 13 8 20 2 35 -26 10
-20 18 -38 18 -39z m-1190 -24 c0 -24 -4 -38 -10 -34 -5 3 -10 22 -10 41 0 19
5 34 10 34 6 0 10 -18 10 -41z m1187 -31 c-3 -8 -6 -5 -6 6 -1 11 2 17 5 13 3
-3 4 -12 1 -19z m-1197 -108 c0 -5 -2 -10 -4 -10 -3 0 -8 5 -11 10 -3 6 -1 10
4 10 6 0 11 -4 11 -10z m1175 -19 c-3 -5 -1 -12 5 -16 16 -10 12 -35 -6 -35
-8 0 -13 4 -10 9 4 5 1 11 -5 13 -12 4 -1 38 13 38 5 0 7 -4 3 -9z m-165 -129
c0 -35 -6 -41 -30 -35 -27 7 -34 34 -10 40 11 3 20 9 20 14 0 5 5 9 10 9 6 0
10 -13 10 -28z m-274 -76 c9 -36 1 -71 -16 -71 -15 0 -24 53 -15 83 7 20 24
14 31 -12z m-129 -124 c-17 -16 -39 -8 -31 12 3 8 14 12 25 9 18 -5 19 -7 6
-21z m390 -8 c-3 -3 -12 -4 -19 -1 -8 3 -5 6 6 6 11 1 17 -2 13 -5z m-537 -14
c0 -5 -4 -10 -10 -10 -5 0 -10 5 -10 10 0 6 5 10 10 10 6 0 10 -4 10 -10z
m326 -57 c-11 -11 -19 6 -11 24 8 17 8 17 12 0 3 -10 2 -21 -1 -24z m-1260
-13 c-14 -17 -26 -29 -26 -25 0 12 42 66 47 61 3 -3 -6 -19 -21 -36z m1152 4
c4 -4 1 -9 -6 -11 -6 -3 -10 -9 -6 -14 3 -5 -21 -9 -55 -9 -51 0 -59 2 -54 16
5 13 -1 15 -32 12 -26 -2 -40 2 -43 11 -4 11 14 12 93 8 53 -3 100 -9 103 -13z
m-1261 -20 c-3 -3 -12 -4 -19 -1 -8 3 -5 6 6 6 11 1 17 -2 13 -5z m2313 -66
c0 -4 -4 -8 -9 -8 -6 0 -12 4 -15 8 -3 5 1 9 9 9 8 0 15 -4 15 -9z m-2480 -48
c0 -5 -5 -10 -11 -10 -5 0 -7 5 -4 10 3 6 8 10 11 10 2 0 4 -4 4 -10z m940
-10 c0 -5 8 -11 18 -11 9 -1 -7 -5 -37 -9 -29 -5 -58 -13 -64 -19 -8 -8 -3
-10 21 -5 33 7 39 0 23 -25 -5 -8 -16 -11 -25 -8 -9 4 -16 1 -16 -6 -1 -7 -6
-5 -14 6 -14 18 -27 11 -39 -23 -3 -11 -7 -9 -14 9 -8 21 -6 29 18 48 43 36
129 65 129 43z m-600 -15 c0 -8 -4 -15 -10 -15 -5 0 -10 7 -10 15 0 8 5 15 10
15 6 0 10 -7 10 -15z m670 -36 c0 -14 -20 -21 -20 -7 -1 9 -5 7 -14 -4 -7 -10
-16 -18 -20 -18 -7 0 -8 34 -1 42 8 8 55 -3 55 -13z m-586 -58 c-2 -3 -12 3
-22 13 -16 17 -16 18 5 5 12 -7 20 -15 17 -18z m19 -35 c14 -11 15 -15 5 -20
-10 -5 -10 -7 0 -12 6 -3 12 -9 12 -14 0 -15 -49 14 -53 32 -8 30 7 35 36 14z
m57 -36 c8 -5 12 -11 9 -14 -3 -3 -14 1 -25 9 -21 16 -8 20 16 5z m830 -49 c0
-17 -18 -21 -24 -6 -3 9 0 15 9 15 8 0 15 -4 15 -9z m70 -12 c0 -5 -4 -9 -10
-9 -5 0 -10 7 -10 16 0 8 5 12 10 9 6 -3 10 -10 10 -16z m-900 -5 c0 -9 -5
-14 -12 -12 -18 6 -21 28 -4 28 9 0 16 -7 16 -16z m523 -4 c96 -14 154 -46
142 -78 -3 -8 -8 -37 -11 -65 -14 -127 -38 -184 -91 -223 -66 -49 -171 -86
-223 -80 -14 2 -38 11 -55 20 -16 9 -37 16 -45 16 -9 0 -26 7 -38 16 -13 9
-27 12 -35 7 -6 -4 -44 -8 -84 -8 l-72 0 -6 34 c-6 30 -3 37 24 58 17 14 31
31 31 39 0 8 5 14 10 14 6 0 10 -4 10 -10 0 -5 7 -7 15 -4 8 4 13 9 10 14 -2
4 5 16 15 28 11 12 20 26 20 32 0 13 12 13 90 -3 85 -18 233 1 326 42 38 17
44 24 35 35 -9 11 -9 16 0 21 6 4 15 2 19 -4 5 -9 11 -8 24 4 21 22 20 26 -15
54 -16 13 -29 19 -28 15 1 -5 -3 -22 -9 -37 -7 -16 -12 -33 -12 -38 0 -5 -12
-14 -26 -19 -30 -12 -94 -13 -94 -2 0 11 -74 32 -96 26 -12 -3 -28 4 -42 19
-20 21 -31 24 -73 21 -43 -3 -50 -1 -47 13 7 38 194 63 331 43z m-1583 -10
c-20 -13 -33 -13 -25 0 3 6 14 10 23 10 15 0 15 -2 2 -10z m1690 -71 c0 -5 -4
-9 -10 -9 -5 0 -10 7 -10 16 0 8 5 12 10 9 6 -3 10 -10 10 -16z m3250 -11 c0
-16 -3 -19 -11 -11 -6 6 -8 16 -5 22 11 17 16 13 16 -11z m-4686 -27 c3 -5 -3
-11 -14 -14 -20 -5 -26 3 -13 16 9 10 21 9 27 -2z m1221 -13 c6 -4 2 -8 -7 -8
-10 0 -18 7 -18 17 0 9 3 12 8 7 4 -5 12 -12 17 -16z m-1312 5 c-7 -2 -19 -2
-25 0 -7 3 -2 5 12 5 14 0 19 -2 13 -5z m1357 -34 c0 -14 -17 -10 -23 5 -4 10
-1 13 9 9 7 -3 14 -9 14 -14z m-1296 -24 c-4 -8 -1 -15 7 -15 7 0 9 -3 6 -7
-4 -3 -15 1 -24 10 -10 8 -31 17 -48 20 -22 3 -17 4 17 6 38 1 46 -2 42 -14z
m875 -8 c-2 -1 -12 -9 -22 -16 -15 -12 -17 -12 -11 3 3 9 13 16 22 16 8 0 13
-1 11 -3z m-1174 -25 c-3 -3 -11 0 -18 7 -9 10 -8 11 6 5 10 -3 15 -9 12 -12z
m882 -58 c-3 -3 -12 -4 -19 -1 -8 3 -5 6 6 6 11 1 17 -2 13 -5z m-186 -56 c6
-10 -1 -14 -28 -16 -46 -4 -103 6 -103 18 0 22 117 20 131 -2z m409 -28 c0
-30 -4 -40 -16 -40 -12 0 -14 5 -9 18 4 9 10 27 12 40 8 34 13 27 13 -18z
m-630 10 c0 -5 -7 -10 -15 -10 -8 0 -15 5 -15 10 0 6 7 10 15 10 8 0 15 -4 15
-10z m18 -52 c-5 -24 -5 -44 -1 -45 15 -5 2 -83 -13 -83 -8 0 -14 8 -14 18 0
10 -3 22 -7 26 -4 3 -7 15 -8 25 -1 13 3 17 13 13 12 -4 14 2 8 31 -5 25 -3
42 6 51 21 22 27 9 16 -36z m4522 42 c0 -5 -5 -10 -11 -10 -5 0 -7 5 -4 10 3
6 8 10 11 10 2 0 4 -4 4 -10z m-4403 -24 c2 -2 6 -30 9 -64 4 -34 11 -62 15
-62 13 0 31 39 23 52 -5 7 0 9 14 6 13 -4 20 -2 16 4 -3 5 2 9 12 8 55 -6 61
14 8 27 -20 4 -37 13 -37 18 -2 10 181 31 190 21 3 -2 -19 -35 -49 -73 -29
-37 -78 -100 -108 -140 -30 -40 -56 -70 -59 -68 -5 6 -9 37 -10 83 -1 19 -5
31 -11 27 -5 -3 -10 1 -10 9 0 9 -9 16 -20 16 -11 0 -20 6 -20 14 0 8 -9 18
-21 21 -19 7 -20 7 -2 21 12 9 14 13 4 14 -8 0 -11 7 -8 20 3 11 1 23 -4 26
-5 3 -9 12 -9 21 0 12 7 14 38 8 20 -4 38 -8 39 -9z m309 -4 c5 -4 18 -24 27
-44 10 -21 22 -38 26 -38 5 0 18 -15 30 -32 11 -18 21 -27 21 -19 0 8 2 12 5
9 6 -5 -36 -89 -58 -116 -5 -7 -7 -15 -4 -18 3 -3 13 7 24 21 10 15 29 39 43
54 14 15 31 40 39 56 l13 30 12 -35 c20 -62 144 -97 132 -37 -3 12 -7 41 -11
65 l-5 43 32 -3 c39 -4 48 -13 48 -54 0 -42 40 -63 76 -39 30 19 54 19 54 0 0
-17 16 -20 25 -5 11 18 25 10 25 -15 0 -20 5 -25 25 -25 14 0 25 -6 25 -12 0
-10 2 -10 9 0 5 8 17 11 33 7 15 -4 29 -2 32 4 10 16 29 13 23 -3 -4 -10 4
-15 28 -18 18 -2 31 0 29 4 -3 4 12 8 33 8 l38 -1 -24 -20 c-32 -26 -21 -35
12 -9 14 11 32 20 41 20 19 0 46 -38 39 -56 -5 -14 -68 -38 -81 -30 -4 2 -8
-3 -8 -12 0 -16 3 -16 38 1 27 14 42 16 55 8 15 -8 11 -12 -29 -22 -26 -7 -63
-28 -83 -46 -42 -38 -55 -41 -62 -13 -7 24 -5 24 -45 0 -37 -22 -98 -27 -98
-7 0 8 -4 7 -10 -3 -8 -12 -10 -11 -10 8 0 24 -15 29 -27 9 -14 -23 -43 -28
-50 -9 -4 9 -11 20 -16 23 -14 10 1 29 18 22 8 -3 15 0 15 6 0 6 -4 11 -10 11
-5 0 -10 6 -10 14 0 11 -20 16 -77 21 -43 3 -90 11 -105 17 -15 5 -49 7 -75 4
-54 -6 -47 -6 -163 -5 -47 0 -116 -5 -155 -10 -46 -7 -73 -7 -81 0 -9 7 -19 6
-32 -2 -12 -8 -25 -9 -35 -3 -14 8 -10 18 31 69 62 80 88 105 98 97 4 -4 4 -2
1 5 -10 17 4 45 19 39 7 -3 11 0 8 7 -2 7 7 24 21 37 14 13 25 29 25 37 0 14
19 17 36 5z m4044 -22 c0 -5 -5 -10 -11 -10 -5 0 -7 5 -4 10 3 6 8 10 11 10 2
0 4 -4 4 -10z m30 0 c0 -5 -5 -10 -11 -10 -5 0 -7 5 -4 10 3 6 8 10 11 10 2 0
4 -4 4 -10z m-3707 -27 c-7 -2 -19 -2 -25 0 -7 3 -2 5 12 5 14 0 19 -2 13 -5z
m-203 -7 c0 -2 -7 -7 -16 -10 -8 -3 -12 -2 -9 4 6 10 25 14 25 6z m-890 -55
c0 -4 -16 -12 -35 -18 -25 -8 -33 -8 -28 0 4 6 0 8 -10 4 -40 -16 -52 -19 -38
-9 7 5 11 14 7 20 -3 6 4 12 16 14 32 4 88 -3 88 -11z m1797 -3 c-3 -8 -6 -5
-6 6 -1 11 2 17 5 13 3 -3 4 -12 1 -19z m180 -24 c-3 -3 -12 -4 -19 -1 -8 3
-5 6 6 6 11 1 17 -2 13 -5z m1433 -24 c0 -6 -23 -9 -52 -9 l-53 2 40 7 c60 11
65 11 65 0z m-1410 -15 c0 -8 -6 -15 -14 -15 -20 0 -29 17 -14 23 22 9 28 7
28 -8z m-426 -1 c20 -8 21 -34 1 -34 -8 0 -15 5 -15 10 0 6 -10 15 -22 20
l-23 9 22 0 c12 1 28 -2 37 -5z m-84 -18 c0 -2 -7 -6 -15 -10 -8 -3 -15 -1
-15 4 0 6 7 10 15 10 8 0 15 -2 15 -4z m-1430 -16 c0 -5 -5 -10 -11 -10 -5 0
-7 5 -4 10 3 6 8 10 11 10 2 0 4 -4 4 -10z m2720 0 c0 -5 -7 -10 -16 -10 -8 0
-12 5 -9 10 3 6 10 10 16 10 5 0 9 -4 9 -10z m-3040 -42 c0 -7 -7 -21 -15 -31
-10 -15 -18 -17 -32 -8 -16 9 -16 10 -1 11 9 0 20 9 23 20 7 22 25 27 25 8z
m425 -38 c-3 -5 -11 -10 -16 -10 -6 0 -7 5 -4 10 3 6 11 10 16 10 6 0 7 -4 4
-10z m741 -55 c1 -14 -2 -25 -7 -25 -5 0 -9 14 -9 32 0 36 12 31 16 -7z
m-1306 5 c0 -5 -13 -10 -30 -10 -16 0 -30 5 -30 10 0 6 14 10 30 10 17 0 30
-4 30 -10z m537 -36 c-3 -3 -12 -4 -19 -1 -8 3 -5 6 6 6 11 1 17 -2 13 -5z
m772 -36 c0 -28 -2 -30 -9 -13 -12 28 -12 45 0 45 6 0 10 -15 9 -32z m-779
-70 c0 -5 -4 -8 -10 -8 -5 0 -10 10 -10 23 0 18 2 19 10 7 5 -8 10 -18 10 -22z
m-1350 -108 c0 -5 -4 -10 -10 -10 -5 0 -10 5 -10 10 0 6 5 10 10 10 6 0 10 -4
10 -10z m6060 -5 c0 -8 -4 -15 -10 -15 -5 0 -10 7 -10 15 0 8 5 15 10 15 6 0
10 -7 10 -15z m-20 -90 c-7 -30 -15 -53 -18 -51 -2 3 2 30 9 60 7 31 14 54 17
51 3 -3 -1 -30 -8 -60z m-4740 1 c0 -3 -4 -8 -10 -11 -5 -3 -10 -1 -10 4 0 6
5 11 10 11 6 0 10 -2 10 -4z m4717 -128 c-2 -13 -4 -5 -4 17 -1 22 1 32 4 23
2 -10 2 -28 0 -40z m-4577 26 c0 -8 -4 -12 -10 -9 -5 3 -10 10 -10 16 0 5 5 9
10 9 6 0 10 -7 10 -16z m2520 -14 c0 -5 -16 -10 -36 -10 -21 0 -33 4 -29 10 3
6 19 10 36 10 16 0 29 -4 29 -10z m2263 -92 c32 -48 57 -92 57 -97 0 -6 5 -11
10 -11 6 0 10 -4 10 -9 0 -10 138 -229 177 -279 21 -28 24 -38 16 -70 l-9 -37
-55 2 c-29 1 -130 5 -222 9 l-169 6 7 52 c4 28 13 76 20 106 14 58 36 168 61
310 18 105 24 124 33 114 5 -5 33 -48 64 -96z m-2350 65 c-7 -2 -19 -2 -25 0
-7 3 -2 5 12 5 14 0 19 -2 13 -5z m-28 -83 c3 -5 -1 -10 -9 -10 -9 0 -16 -7
-16 -16 0 -11 -5 -14 -16 -10 -9 3 -19 6 -22 6 -4 0 0 5 8 10 10 6 11 10 3 10
-7 0 -13 5 -13 10 0 6 13 10 29 10 17 0 33 -4 36 -10z m2152 -12 c-3 -8 -6 -5
-6 6 -1 11 2 17 5 13 3 -3 4 -12 1 -19z m-2257 -17 c0 -5 -7 -11 -15 -15 -15
-5 -20 5 -8 17 9 10 23 9 23 -2z m135 -1 c-3 -5 -12 -7 -20 -3 -21 7 -19 13 6
13 11 0 18 -4 14 -10z m-66 -19 c9 -6 5 -8 -13 -8 -14 0 -26 3 -26 8 0 11 21
11 39 0z m-148 -31 c6 0 7 -5 4 -11 -4 -6 -13 -8 -20 -5 -17 6 -36 -16 -27
-30 4 -6 14 -14 22 -17 12 -4 11 -6 -2 -6 -20 -1 -25 -21 -5 -21 8 0 7 -4 -3
-10 -18 -12 -30 -13 -29 -2 5 27 -3 52 -16 52 -8 0 -15 4 -15 9 0 5 -3 16 -6
25 -5 13 2 16 35 16 32 0 41 4 42 18 1 16 2 16 6 0 2 -10 9 -18 14 -18z m95
12 c-3 -5 -20 -9 -38 -9 -27 -1 -29 1 -13 7 27 11 57 12 51 2z m-961 -104 c-1
-57 -3 -106 -4 -110 -2 -15 -437 -3 -461 12 -6 4 -14 41 -17 82 -5 72 -5 76
18 89 16 8 92 15 229 19 113 4 212 7 221 8 13 2 15 -12 14 -100z m1065 82 c0
-5 -2 -10 -4 -10 -3 0 -8 5 -11 10 -3 6 -1 10 4 10 6 0 11 -4 11 -10z m-140
-20 c-12 -8 -11 -11 8 -16 17 -5 20 -9 11 -15 -8 -4 -19 -3 -27 3 -10 9 -16 8
-22 -2 -5 -8 -13 -11 -17 -6 -9 9 32 46 51 46 6 0 4 -5 -4 -10z m-1460 -80
c-6 -11 -16 -17 -22 -14 -7 5 -5 12 7 21 25 18 28 17 15 -7z m-1595 -20 c-3
-5 -10 -10 -16 -10 -5 0 -9 5 -9 10 0 6 7 10 16 10 8 0 12 -4 9 -10z m2955 -7
c0 -10 -5 -25 -10 -33 -8 -13 -10 -12 -10 3 0 10 -8 17 -20 17 -11 0 -20 4
-20 9 0 8 10 12 53 20 4 0 7 -7 7 -16z m-1397 -34 c-4 -4 -15 -4 -23 1 -10 7
-11 10 -2 10 6 0 12 8 12 18 1 16 1 16 11 -1 6 -11 7 -23 2 -28z m74 -1 c-3
-7 -5 -2 -5 12 0 14 2 19 5 13 2 -7 2 -19 0 -25z m1368 2 c-5 -8 -11 -8 -17
-2 -6 6 -7 16 -3 22 5 8 11 8 17 2 6 -6 7 -16 3 -22z m-3038 14 c-3 -3 -12 -4
-19 -1 -8 3 -5 6 6 6 11 1 17 -2 13 -5z m701 -11 c-10 -2 -26 -2 -35 0 -10 3
-2 5 17 5 19 0 27 -2 18 -5z m2073 -33 c5 0 9 -5 9 -10 0 -6 -8 -10 -17 -8
-10 2 -17 -3 -15 -9 3 -17 -6 -16 -24 1 -19 20 -18 26 7 26 11 0 17 5 14 10
-3 6 -3 16 2 23 6 8 9 5 11 -10 2 -13 8 -23 13 -23z m174 30 c3 -5 1 -10 -4
-10 -6 0 -11 5 -11 10 0 6 2 10 4 10 3 0 8 -4 11 -10z m-245 -16 c0 -8 -5 -12
-10 -9 -6 4 -8 11 -5 16 9 14 15 11 15 -7z m625 -8 c-13 -19 -55 -43 -55 -31
0 17 16 35 30 35 11 0 22 5 25 10 3 6 8 10 11 10 2 0 -3 -11 -11 -24z m-286
-16 c17 0 13 -17 -5 -24 -22 -9 -24 -8 -24 9 0 18 -12 19 -28 3 -9 -9 -15 -9
-23 -1 -8 8 -4 15 17 27 25 13 30 13 40 0 6 -8 16 -14 23 -14z m-3011 8 c-2
-6 -10 -14 -16 -16 -7 -2 -10 2 -6 12 7 18 28 22 22 4z m3116 -14 c9 -22 8
-24 -9 -18 -8 4 -15 12 -15 20 0 19 16 18 24 -2z m-24 -30 c0 -16 -18 -18 -40
-4 -10 6 -11 10 -2 10 6 0 11 3 11 8 -3 19 2 23 16 12 8 -7 15 -19 15 -26z
m3437 20 c-3 -3 -12 -4 -19 -1 -8 3 -5 6 6 6 11 1 17 -2 13 -5z m-3317 -20 c0
-8 -4 -12 -10 -9 -5 3 -10 10 -10 16 0 5 5 9 10 9 6 0 10 -7 10 -16z m40 -5
c0 -4 -7 -6 -15 -3 -8 4 -15 10 -15 15 0 4 7 6 15 3 8 -4 15 -10 15 -15z
m-2107 -16 c-7 -2 -19 -2 -25 0 -7 3 -2 5 12 5 14 0 19 -2 13 -5z m214 -69
c-3 -3 -12 -4 -19 -1 -8 3 -5 6 6 6 11 1 17 -2 13 -5z m1095 -9 c7 3 22 -1 33
-9 11 -9 14 -16 8 -16 -7 0 -13 -7 -13 -15 0 -20 -7 -19 -32 5 -12 10 -24 18
-27 15 -4 -2 -7 5 -7 15 0 13 4 16 12 9 6 -5 18 -7 26 -4z m-964 -7 c-6 -18
-28 -21 -28 -4 0 9 7 16 16 16 9 0 14 -5 12 -12z m1107 2 c-4 -6 1 -7 11 -3
14 5 16 3 11 -11 -4 -10 -7 -22 -7 -27 0 -19 -18 -8 -24 15 -5 21 -13 26 -49
29 -40 3 -39 4 11 5 33 1 51 -2 47 -8z m-40 -20 c3 -6 -4 -10 -17 -10 -18 0
-20 2 -8 10 19 12 18 12 25 0z m-1085 -23 c0 -8 -9 -22 -20 -32 -22 -20 -27
-7 -10 26 12 22 30 25 30 6z m2015 -17 c0 -7 -10 -19 -22 -27 -21 -14 -23 -14
-23 1 0 10 5 14 10 11 6 -3 10 3 10 15 0 13 5 20 13 18 6 -3 12 -10 12 -18z
m95 12 c0 -4 -6 -14 -12 -20 -9 -9 -10 -15 -2 -20 25 -16 20 -37 -13 -54 -38
-20 -43 -22 -43 -9 0 5 14 18 31 29 l31 19 -36 7 c-32 6 -52 26 -25 26 5 0 8
4 4 9 -5 9 14 15 53 20 6 0 12 -3 12 -7z m-1030 -6 c0 -2 -7 -6 -15 -10 -8 -3
-15 -1 -15 4 0 6 7 10 15 10 8 0 15 -2 15 -4z m800 -6 c0 -5 -4 -10 -9 -10 -5
0 -18 -3 -28 -7 -16 -6 -16 -5 -4 10 15 19 41 23 41 7z m-615 -20 c-3 -5 -12
-10 -18 -10 -7 0 -6 4 3 10 19 12 23 12 15 0z m669 -15 c-4 -8 1 -18 10 -21 9
-3 16 -12 16 -20 0 -8 5 -14 10 -14 6 0 10 -5 10 -11 0 -6 -21 -9 -52 -8 -29
1 -61 -2 -70 -6 -31 -12 -20 10 15 30 17 10 34 18 37 16 2 -1 6 2 8 8 2 6 -3
8 -12 5 -21 -8 -20 5 0 27 19 21 36 16 28 -6z m-1964 -9 c0 -3 -4 -8 -10 -11
-5 -3 -10 -1 -10 4 0 6 5 11 10 11 6 0 10 -2 10 -4z m1870 -26 c0 -5 -6 -7
-14 -4 -11 4 -13 0 -9 -15 6 -25 -12 -28 -21 -4 -5 11 -1 22 10 30 17 13 34 9
34 -7z m-73 -5 c0 -17 -13 -20 -21 -6 -4 5 0 12 6 14 7 3 13 6 14 6 0 1 1 -6
1 -14z m-1817 -5 c0 -5 -4 -10 -10 -10 -5 0 -10 5 -10 10 0 6 5 10 10 10 6 0
10 -4 10 -10z m1870 -60 c0 -5 -2 -10 -4 -10 -3 0 -8 5 -11 10 -3 6 -1 10 4
10 6 0 11 -4 11 -10z m267 -22 c-3 -8 -6 -5 -6 6 -1 11 2 17 5 13 3 -3 4 -12
1 -19z m-63 -17 c3 -4 -6 -6 -19 -3 -14 2 -25 6 -25 8 0 8 39 4 44 -5z"/>
<path d="M3760 4078 c0 -16 5 -28 10 -28 13 0 13 20 0 40 -8 12 -10 9 -10 -12z"/>
<path d="M1570 3725 c0 -9 6 -12 15 -9 8 4 12 10 9 15 -8 14 -24 10 -24 -6z"/>
<path d="M1586 3681 c22 -21 27 -21 18 3 -3 9 -13 16 -22 16 -13 0 -12 -3 4
-19z"/>
<path d="M4217 3248 c-13 -106 -11 -116 29 -133 55 -23 79 -20 80 10 1 14 -1
25 -5 25 -22 2 -66 55 -81 99 l-17 52 -6 -53z"/>
<path d="M2301 3299 c-1 -64 10 -139 21 -139 9 0 2 94 -12 153 -8 30 -8 29 -9
-14z"/>
<path d="M2788 4489 c15 -6 30 -5 40 1 13 7 8 9 -23 9 -35 0 -37 -1 -17 -10z"/>
<path d="M2880 4485 c0 -18 17 -20 22 -3 3 7 7 6 11 -5 5 -12 1 -17 -13 -17
-11 0 -20 -4 -20 -10 0 -5 11 -10 25 -10 21 0 25 5 25 30 0 25 -4 30 -25 30
-16 0 -25 -6 -25 -15z"/>
<path d="M3240 4491 c0 -5 -3 -16 -6 -24 -3 -8 2 -17 12 -21 12 -5 15 -2 10
10 -4 9 -1 23 5 30 9 11 8 14 -5 14 -9 0 -16 -4 -16 -9z"/>
<path d="M3349 4486 c9 -10 7 -15 -6 -20 -15 -6 -15 -8 -3 -16 8 -6 27 -10 43
-10 15 0 27 -6 27 -12 0 -10 3 -9 9 1 5 7 6 25 2 38 -5 21 -14 26 -45 29 -31
3 -36 1 -27 -10z"/>
<path d="M3596 4470 c9 -16 20 -32 25 -35 5 -4 6 -11 3 -17 -4 -7 -2 -8 4 -4
7 4 12 14 12 22 0 8 5 14 10 14 6 0 10 11 10 25 0 22 -4 25 -39 25 l-39 0 14
-30z"/>
<path d="M2790 4460 c0 -25 13 -32 41 -22 22 9 22 9 -9 25 -30 15 -32 14 -32
-3z"/>
<path d="M3018 4443 c7 -3 16 -2 19 1 4 3 -2 6 -13 5 -11 0 -14 -3 -6 -6z"/>
<path d="M2797 4400 c3 -11 7 -20 9 -20 2 0 4 9 4 20 0 11 -4 20 -9 20 -5 0
-7 -9 -4 -20z"/>
<path d="M2873 4370 c0 -17 6 -30 13 -30 12 0 24 -21 24 -42 0 -6 -6 -6 -15 2
-12 10 -15 10 -15 -2 0 -7 11 -15 25 -16 31 -2 32 10 3 70 -27 55 -35 59 -35
18z"/>
<path d="M3622 4381 c-8 -5 -12 -16 -10 -25 2 -12 6 -10 15 9 6 14 10 25 10
25 -1 0 -8 -4 -15 -9z"/>
<path d="M3000 4365 c7 -8 9 -26 6 -42 -3 -15 -3 -33 2 -39 11 -17 42 -25 43
-11 2 38 7 64 13 78 7 17 -16 29 -58 29 -15 0 -16 -3 -6 -15z"/>
<path d="M2862 4285 c0 -16 2 -22 5 -12 2 9 2 23 0 30 -3 6 -5 -1 -5 -18z"/>
<path d="M7987 4196 c-7 -55 -4 -77 9 -64 3 3 4 32 2 64 l-3 59 -8 -59z"/>
<path d="M3472 4208 c6 -18 28 -21 28 -4 0 9 -7 16 -16 16 -9 0 -14 -5 -12
-12z"/>
<path d="M3415 4200 c-3 -5 1 -10 9 -10 9 0 16 5 16 10 0 6 -4 10 -9 10 -6 0
-13 -4 -16 -10z"/>
<path d="M2814 4184 c3 -9 6 -27 6 -40 0 -22 4 -24 45 -24 43 0 45 1 35 20 -6
12 -21 20 -36 20 -17 0 -28 7 -31 20 -3 11 -10 20 -15 20 -6 0 -7 -7 -4 -16z"/>
<path d="M3080 4180 c0 -17 -7 -20 -40 -20 -61 0 -47 -33 18 -42 29 -4 32 -2
32 23 0 15 3 34 6 43 3 9 1 16 -5 16 -6 0 -11 -9 -11 -20z"/>
<path d="M3562 4145 c0 -16 2 -22 5 -12 2 9 2 23 0 30 -3 6 -5 -1 -5 -18z"/>
<path d="M2937 4141 c4 -14 14 -21 30 -21 35 0 27 34 -9 38 -22 3 -26 0 -21
-17z"/>
<path d="M3545 4090 c-3 -5 1 -10 9 -10 9 0 16 5 16 10 0 6 -4 10 -9 10 -6 0
-13 -4 -16 -10z"/>
<path d="M7971 4054 c0 -11 3 -14 6 -6 3 7 2 16 -1 19 -3 4 -6 -2 -5 -13z"/>
<path d="M7988 4011 c-11 -49 -10 -67 3 -54 6 6 9 28 7 49 l-3 39 -7 -34z"/>
<path d="M7961 3970 c-10 -73 -10 -84 -1 -68 6 9 17 15 25 12 8 -4 15 -2 15 4
0 5 -6 12 -14 15 -8 3 -16 16 -19 29 -2 13 -5 16 -6 8z"/>
<path d="M7975 3870 c-3 -5 -1 -10 4 -10 6 0 11 5 11 10 0 6 -2 10 -4 10 -3 0
-8 -4 -11 -10z"/>
<path d="M225 3818 c9 -41 27 -54 39 -28 7 15 4 25 -9 40 -27 29 -38 25 -30
-12z"/>
<path d="M7942 3830 c0 -14 2 -19 5 -12 2 6 2 18 0 25 -3 6 -5 1 -5 -13z"/>
<path d="M7991 3794 c0 -11 3 -14 6 -6 3 7 2 16 -1 19 -3 4 -6 -2 -5 -13z"/>
<path d="M5802 3755 c0 -16 2 -22 5 -12 2 9 2 23 0 30 -3 6 -5 -1 -5 -18z"/>
<path d="M3506 3705 c-3 -8 -1 -15 4 -15 6 0 10 7 10 15 0 8 -2 15 -4 15 -2 0
-6 -7 -10 -15z"/>
<path d="M3540 3706 c0 -2 9 -6 20 -9 11 -3 18 -1 14 4 -5 9 -34 13 -34 5z"/>
<path d="M7915 3689 c-4 -6 -5 -12 -2 -15 2 -3 7 2 10 11 7 17 1 20 -8 4z"/>
<path d="M3482 3650 c0 -14 2 -19 5 -12 2 6 2 18 0 25 -3 6 -5 1 -5 -13z"/>
<path d="M3533 3663 c-7 -3 -13 -12 -13 -21 0 -15 2 -15 17 1 18 18 16 27 -4
20z"/>
<path d="M5792 3645 c0 -16 2 -22 5 -12 2 9 2 23 0 30 -3 6 -5 -1 -5 -18z"/>
<path d="M7842 3650 c0 -14 2 -19 5 -12 2 6 2 18 0 25 -3 6 -5 1 -5 -13z"/>
<path d="M2779 3633 c-1 -5 0 -12 1 -18 6 -30 10 -71 16 -178 4 -64 9 -115 12
-112 3 3 5 66 3 140 l-2 135 25 0 c22 0 26 -5 26 -27 0 -33 17 -19 20 17 4 48
2 50 -50 50 -27 0 -51 -3 -51 -7z"/>
<path d="M2962 3618 c2 -13 6 -22 11 -20 4 1 25 2 47 2 33 0 40 3 40 20 0 17
-7 20 -51 20 -47 0 -50 -2 -47 -22z"/>
<path d="M3522 3570 c0 -14 2 -19 5 -12 2 6 2 18 0 25 -3 6 -5 1 -5 -13z"/>
<path d="M5780 3558 c0 -13 -16 -185 -34 -383 -19 -198 -44 -459 -55 -580 -12
-121 -23 -232 -26 -247 -3 -20 0 -28 10 -28 10 0 15 11 15 33 1 17 5 79 10
137 6 58 17 193 25 300 9 107 24 290 35 405 28 312 33 385 26 385 -3 0 -6 -10
-6 -22z"/>
<path d="M2872 3520 c0 -14 2 -19 5 -12 2 6 2 18 0 25 -3 6 -5 1 -5 -13z"/>
<path d="M3528 3535 c-10 -15 -7 -305 3 -305 5 0 9 5 9 10 0 6 25 10 56 10 34
0 53 4 49 10 -3 6 -28 10 -55 10 l-49 0 -3 138 c-2 75 -6 132 -10 127z"/>
<path d="M0 3170 c0 -171 3 -310 6 -310 4 0 52 14 108 31 56 17 109 32 118 35
9 3 28 24 42 47 29 50 79 99 201 196 110 89 180 132 302 187 52 23 102 49 112
58 10 9 24 16 32 16 9 0 24 6 34 14 17 12 16 14 -16 19 -19 3 -140 6 -269 7
-129 1 -333 3 -452 5 l-218 4 0 -309z m530 171 c0 -6 -4 -12 -9 -16 -5 -3 -7
-20 -4 -39 6 -40 -1 -45 -64 -52 -59 -6 -71 2 -75 48 -1 20 -6 34 -10 32 -4
-3 -14 -2 -20 3 -8 4 13 12 52 19 85 15 130 16 130 5z m-215 -21 c-3 -5 -12
-7 -20 -3 -21 7 -19 13 6 13 11 0 18 -4 14 -10z m15 -65 c0 -13 5 -27 11 -31
15 -9 -9 -24 -28 -17 -10 4 -11 9 -3 18 6 7 8 25 4 41 -5 19 -4 25 5 20 6 -4
11 -18 11 -31z"/>
<path d="M3290 3387 c0 -23 13 -27 33 -12 12 8 14 15 8 20 -6 3 -11 1 -11 -6
0 -8 -4 -8 -15 1 -12 10 -15 10 -15 -3z"/>
<path d="M3370 3390 c0 -5 5 -10 11 -10 5 0 7 5 4 10 -3 6 -8 10 -11 10 -2 0
-4 -4 -4 -10z"/>
<path d="M2962 3293 c2 -14 -5 -19 -34 -21 -52 -4 -48 -19 7 -24 45 -3 45 -3
45 29 0 18 -5 33 -10 33 -6 0 -10 -8 -8 -17z"/>
<path d="M3371 3283 c-9 -16 -13 -16 -32 -5 -17 11 -27 11 -51 1 -25 -10 -31
-10 -39 2 -6 10 -9 11 -9 1 0 -9 -20 -12 -75 -11 -42 1 -78 -1 -82 -5 -15 -15
14 -20 94 -18 49 2 98 -2 114 -8 19 -8 33 -9 46 -2 13 8 22 7 35 -5 11 -10 18
-12 18 -5 0 7 9 12 20 12 11 0 20 7 20 16 0 11 -6 14 -21 9 -19 -6 -21 -4 -16
14 6 25 -8 28 -22 4z"/>
<path d="M3453 3285 c-14 -15 -18 -65 -5 -65 14 1 42 49 36 64 -7 19 -15 20
-31 1z"/>
<path d="M3533 3180 c0 -25 2 -35 4 -22 2 12 2 32 0 45 -2 12 -4 2 -4 -23z"/>
<path d="M2912 3080 c0 -14 2 -19 5 -12 2 6 2 18 0 25 -3 6 -5 1 -5 -13z"/>
<path d="M3630 3070 c0 -5 5 -10 10 -10 6 0 10 5 10 10 0 6 -4 10 -10 10 -5 0
-10 -4 -10 -10z"/>
<path d="M2910 3040 c0 -5 5 -10 11 -10 5 0 7 5 4 10 -3 6 -8 10 -11 10 -2 0
-4 -4 -4 -10z"/>
<path d="M3637 3023 c-2 -4 -5 -33 -6 -65 -1 -51 1 -56 19 -51 23 6 27 43 5
43 -8 0 -15 5 -15 10 0 6 5 10 10 10 6 0 9 11 7 25 -3 27 -13 40 -20 28z"/>
<path d="M1592 2915 c0 -16 2 -22 5 -12 2 9 2 23 0 30 -3 6 -5 -1 -5 -18z"/>
<path d="M3260 2935 c-3 -5 -6 -39 -5 -74 0 -48 4 -66 15 -68 12 -4 13 -3 1 5
-7 5 -9 11 -5 13 5 2 7 33 4 69 -3 36 -7 61 -10 55z"/>
<path d="M1875 2910 c-3 -5 -1 -10 4 -10 6 0 11 5 11 10 0 6 -2 10 -4 10 -3 0
-8 -4 -11 -10z"/>
<path d="M2955 2899 c3 -4 -15 -24 -39 -44 -41 -34 -44 -38 -29 -54 9 -11 23
-16 35 -13 17 4 19 1 14 -16 -6 -17 -3 -19 14 -15 23 6 25 21 7 48 -9 13 -11
29 -6 45 4 14 7 20 8 13 1 -8 7 -8 25 0 28 14 24 33 -9 40 -14 2 -22 1 -20 -4z
m-25 -83 c0 -3 -4 -8 -10 -11 -5 -3 -10 -1 -10 4 0 6 5 11 10 11 6 0 10 -2 10
-4z"/>
<path d="M3543 2875 c0 -22 2 -30 4 -17 2 12 2 30 0 40 -3 9 -5 -1 -4 -23z"/>
<path d="M1927 2863 c-6 -35 -10 -40 -27 -36 -11 3 -20 0 -20 -6 0 -6 7 -11
15 -11 19 0 19 -14 1 -30 -8 -6 -12 -18 -9 -26 11 -30 41 15 48 71 9 65 1 97
-8 38z"/>
<path d="M3451 2804 c0 -11 3 -14 6 -6 3 7 2 16 -1 19 -3 4 -6 -2 -5 -13z"/>
<path d="M3475 2770 c-4 -17 -5 -34 -2 -36 3 -3 8 9 12 26 4 17 5 34 2 36 -3
3 -8 -9 -12 -26z"/>
<path d="M3531 2774 c0 -11 3 -14 6 -6 3 7 2 16 -1 19 -3 4 -6 -2 -5 -13z"/>
<path d="M3188 2769 c-8 -6 1 -9 25 -9 20 0 37 2 37 4 0 9 -50 12 -62 5z"/>
<path d="M3110 2760 c0 -5 9 -10 20 -10 11 0 20 5 20 10 0 6 -9 10 -20 10 -11
0 -20 -4 -20 -10z"/>
<path d="M910 2754 c0 -3 19 -25 43 -50 86 -92 106 -154 87 -266 -5 -35 -12
-79 -15 -98 l-5 -35 16 40 c26 67 29 172 8 240 -10 33 -19 71 -19 85 0 18 -5
25 -21 25 -12 0 -33 15 -48 33 -25 29 -46 41 -46 26z"/>
<path d="M1054 2739 c-3 -6 -1 -16 5 -22 9 -9 14 -8 21 3 9 15 4 30 -10 30 -5
0 -12 -5 -16 -11z"/>
<path d="M3057 2742 c12 -8 3 -32 -13 -35 -5 -1 -9 -14 -9 -29 0 -14 -3 -24
-7 -21 -5 2 -8 17 -8 34 0 16 -4 29 -10 29 -5 0 -10 -9 -10 -20 0 -11 -4 -20
-10 -20 -5 0 -10 6 -10 14 0 9 -8 12 -25 8 -27 -5 -32 6 -12 27 10 11 9 13 -3
9 -8 -3 -17 -13 -19 -23 -2 -10 -9 -25 -17 -33 -19 -18 -18 -36 1 -28 11 4 15
-1 15 -19 0 -14 -7 -25 -17 -28 -28 -7 37 -8 80 0 24 3 36 10 33 18 -3 8 7 12
32 11 33 -1 38 2 46 31 6 21 18 34 33 38 28 7 31 34 3 32 -11 -1 -20 -7 -20
-14 0 -20 -17 -15 -23 7 -3 11 -13 20 -24 20 -12 0 -14 -3 -6 -8z"/>
<path d="M3238 2743 c-21 -5 -24 -33 -4 -33 7 0 16 9 19 20 3 11 4 19 4 19 -1
-1 -10 -3 -19 -6z"/>
<path d="M3446 2700 c-15 -5 -16 -9 -7 -14 7 -5 18 -3 24 3 14 14 6 20 -17 11z"/>
<path d="M2855 2670 c3 -5 8 -10 11 -10 2 0 4 5 4 10 0 6 -5 10 -11 10 -5 0
-7 -4 -4 -10z"/>
<path d="M1095 2606 c14 -75 11 -212 -4 -208 -6 1 -11 -12 -11 -29 0 -33 -61
-155 -88 -176 -14 -12 -14 -13 2 -13 22 0 16 -20 -9 -34 -11 -6 -27 -19 -36
-28 -9 -10 -23 -18 -30 -18 -11 0 -11 2 1 10 12 7 12 12 2 22 -6 6 -12 20 -12
29 0 18 -37 33 -46 18 -3 -5 4 -36 15 -68 l20 -58 -22 -59 c-11 -32 -25 -62
-30 -65 -5 -4 -7 -11 -3 -17 3 -6 -2 -15 -11 -21 -27 -15 132 -4 160 11 12 7
44 13 72 14 27 2 51 8 53 14 2 5 8 8 12 5 10 -6 50 16 50 27 0 3 -8 9 -17 11
-12 3 -8 5 9 6 15 0 29 5 32 10 3 5 -12 8 -33 7 -22 0 -37 2 -35 6 11 17 -10
59 -32 64 -23 6 -34 24 -14 24 6 0 10 20 10 44 0 27 5 46 13 49 9 3 9 7 -2 20
-12 15 -9 21 11 18 4 0 10 11 14 27 3 15 8 36 12 47 21 76 -18 355 -53 368 -9
4 -9 -9 0 -57z m-138 -528 c-3 -8 -6 -5 -6 6 -1 11 2 17 5 13 3 -3 4 -12 1
-19z"/>
<path d="M2858 2643 c7 -3 16 -2 19 1 4 3 -2 6 -13 5 -11 0 -14 -3 -6 -6z"/>
<path d="M2824 2609 c0 -11 4 -19 8 -19 4 0 8 4 8 10 0 5 7 7 15 4 9 -4 15 -1
15 7 0 8 -10 15 -23 15 -16 1 -23 -4 -23 -17z"/>
<path d="M2500 2596 c0 -8 4 -17 9 -20 5 -4 7 3 4 14 -6 23 -13 26 -13 6z"/>
<path d="M2540 2594 c0 -9 5 -14 12 -12 18 6 21 28 4 28 -9 0 -16 -7 -16 -16z"/>
<path d="M843 2590 c-13 -5 -23 -16 -23 -23 0 -12 7 -12 45 2 25 9 45 19 45
23 0 11 -39 9 -67 -2z"/>
<path d="M1870 2592 c0 -12 34 -42 48 -42 22 0 12 27 -13 38 -31 14 -35 15
-35 4z"/>
<path d="M2254 2580 c-25 -10 -41 -30 -25 -30 6 0 11 5 11 10 0 6 8 10 18 10
9 0 24 5 32 10 13 9 13 10 0 9 -8 0 -25 -4 -36 -9z"/>
<path d="M760 2540 c0 -5 5 -10 10 -10 6 0 10 5 10 10 0 6 -4 10 -10 10 -5 0
-10 -4 -10 -10z"/>
<path d="M2401 2473 c-1 -6 -4 -20 -7 -30 -5 -17 -5 -17 6 0 6 10 9 23 6 30
-3 9 -5 9 -5 0z"/>
<path d="M6694 2335 c-10 -8 -14 -15 -8 -15 6 0 17 7 24 15 16 19 9 19 -16 0z"/>
<path d="M6850 2340 c0 -5 4 -10 9 -10 6 0 13 5 16 10 3 6 -1 10 -9 10 -9 0
-16 -4 -16 -10z"/>
<path d="M7014 2305 c2 -11 7 -32 10 -47 4 -15 15 -32 26 -38 17 -9 20 -8 19
12 0 23 -17 71 -18 54 -1 -4 -10 2 -22 15 -18 22 -20 22 -15 4z"/>
<path d="M7110 2308 c0 -23 12 -58 19 -58 10 0 1 59 -10 66 -5 3 -9 -1 -9 -8z"/>
<path d="M7205 2283 c-43 -9 -51 -15 -31 -22 23 -9 66 -2 66 10 0 12 -12 16
-35 12z"/>
<path d="M6696 2265 c4 -8 7 -15 9 -15 2 0 5 7 9 15 3 9 0 15 -9 15 -9 0 -12
-6 -9 -15z"/>
<path d="M5627 2191 c-7 -35 -5 -46 10 -40 4 2 6 20 3 39 l-6 35 -7 -34z"/>
<path d="M6610 2216 c0 -2 9 -6 20 -9 11 -3 20 -1 20 4 0 5 -9 9 -20 9 -11 0
-20 -2 -20 -4z"/>
<path d="M7168 2213 c7 -3 16 -2 19 1 4 3 -2 6 -13 5 -11 0 -14 -3 -6 -6z"/>
<path d="M2047 2183 c-12 -11 -8 -23 8 -23 8 0 15 7 15 15 0 16 -12 20 -23 8z"/>
<path d="M7304 2181 c3 -5 -3 -19 -13 -32 -18 -23 -25 -24 -149 -24 -127 0
-165 -6 -123 -20 12 -3 21 -11 21 -16 0 -6 6 -7 17 -1 11 7 21 5 31 -4 8 -8
22 -12 31 -9 9 3 55 6 101 6 97 2 108 5 83 25 -17 14 -16 15 7 10 14 -3 19 -3
13 0 -17 8 -16 29 2 44 17 14 11 30 -11 30 -8 0 -13 -4 -10 -9z"/>
<path d="M6843 2144 c4 -4 27 -8 52 -9 27 -1 40 2 33 7 -15 9 -94 11 -85 2z"/>
<path d="M6968 2123 c7 -3 16 -2 19 1 4 3 -2 6 -13 5 -11 0 -14 -3 -6 -6z"/>
<path d="M3960 2075 c0 -8 4 -15 10 -15 5 0 7 7 4 15 -4 8 -8 15 -10 15 -2 0
-4 -7 -4 -15z"/>
<path d="M6835 2070 c-3 -5 -1 -10 4 -10 6 0 11 5 11 10 0 6 -2 10 -4 10 -3 0
-8 -4 -11 -10z"/>
<path d="M2335 2031 c4 -13 0 -23 -12 -30 -17 -9 -17 -10 1 -17 11 -4 21 -2
26 6 4 7 14 11 21 8 26 -10 34 -8 34 10 0 17 -36 42 -62 42 -10 0 -12 -6 -8
-19z"/>
<path d="M205 2010 c-3 -5 -12 -10 -20 -10 -7 0 -37 -16 -66 -35 -65 -42 -59
-46 9 -6 27 16 59 32 70 36 12 3 22 11 22 16 0 12 -7 12 -15 -1z"/>
<path d="M2195 1990 c-8 -14 13 -22 31 -12 14 8 14 10 -5 15 -11 3 -23 1 -26
-3z"/>
<path d="M3970 1986 c0 -8 8 -17 18 -19 16 -4 16 -5 0 -6 -22 -1 -24 -27 -2
-35 8 -3 13 -2 10 2 -3 5 1 9 8 9 9 0 12 -7 9 -16 -4 -11 -1 -10 9 3 9 12 20
16 29 12 8 -4 6 -1 -3 7 -10 8 -18 24 -18 36 0 17 -6 21 -30 21 -19 0 -30 -5
-30 -14z"/>
<path d="M790 1979 c0 -5 5 -7 10 -4 6 3 10 8 10 11 0 2 -4 4 -10 4 -5 0 -10
-5 -10 -11z"/>
<path d="M1535 1960 c3 -5 8 -10 11 -10 2 0 4 5 4 10 0 6 -5 10 -11 10 -5 0
-7 -4 -4 -10z"/>
<path d="M1470 1930 c0 -11 5 -20 10 -20 6 0 10 9 10 20 0 11 -4 20 -10 20 -5
0 -10 -9 -10 -20z"/>
<path d="M1580 1946 c0 -9 30 -14 35 -6 4 6 -3 10 -14 10 -12 0 -21 -2 -21 -4z"/>
<path d="M5186 1925 c-9 -26 -7 -32 5 -12 6 10 9 21 6 23 -2 3 -7 -2 -11 -11z"/>
<path d="M1560 1910 c0 -13 11 -13 30 0 12 8 11 10 -7 10 -13 0 -23 -4 -23
-10z"/>
<path d="M2321 1884 c0 -11 3 -14 6 -6 3 7 2 16 -1 19 -3 4 -6 -2 -5 -13z"/>
<path d="M3992 1888 c2 -6 10 -13 16 -14 7 -1 8 0 2 3 -5 2 -8 9 -4 14 3 5 0
9 -6 9 -7 0 -10 -5 -8 -12z"/>
<path d="M4058 1873 c7 -3 16 -2 19 1 4 3 -2 6 -13 5 -11 0 -14 -3 -6 -6z"/>
<path d="M303 1863 c15 -2 39 -2 55 0 15 2 2 4 -28 4 -30 0 -43 -2 -27 -4z"/>
<path d="M7790 1850 c0 -5 7 -10 16 -10 8 0 12 5 9 10 -3 6 -10 10 -16 10 -5
0 -9 -4 -9 -10z"/>
<path d="M5170 1800 c0 -5 5 -10 10 -10 6 0 10 5 10 10 0 6 -4 10 -10 10 -5 0
-10 -4 -10 -10z"/>
<path d="M5134 1785 c4 -12 -3 -15 -37 -15 -31 0 -38 3 -27 10 9 6 10 10 3 10
-7 0 -28 -14 -47 -30 -43 -38 -91 -58 -159 -66 -51 -6 -54 -7 -49 -33 10 -52
61 -70 53 -18 -1 10 3 9 35 -8 25 -13 29 -12 41 5 8 11 12 24 9 29 -3 5 1 15
10 22 17 14 288 20 359 7 22 -4 34 -5 28 -2 -7 3 -13 11 -13 17 0 18 -49 37
-97 37 -30 0 -45 5 -49 15 -4 8 -15 15 -25 15 -10 0 -19 5 -19 10 0 6 -5 10
-11 10 -6 0 -9 -7 -5 -15z"/>
<path d="M5218 1763 c12 -2 32 -2 45 0 12 2 2 4 -23 4 -25 0 -35 -2 -22 -4z"/>
<path d="M1041 1744 c0 -11 3 -14 6 -6 3 7 2 16 -1 19 -3 4 -6 -2 -5 -13z"/>
<path d="M1920 1750 c0 -5 5 -10 10 -10 6 0 10 5 10 10 0 6 -4 10 -10 10 -5 0
-10 -4 -10 -10z"/>
<path d="M1985 1750 c-3 -5 -1 -10 4 -10 6 0 11 5 11 10 0 6 -2 10 -4 10 -3 0
-8 -4 -11 -10z"/>
<path d="M4009 1738 c-1 -1 -2 -15 -3 -30 -2 -21 3 -28 17 -28 14 0 18 6 15
27 -2 21 -24 45 -29 31z"/>
<path d="M2330 1720 c-9 -6 -10 -10 -3 -10 6 0 15 5 18 10 8 12 4 12 -15 0z"/>
<path d="M5392 1714 c-13 -6 -23 -14 -23 -18 1 -3 1 -7 0 -8 -1 -2 -3 -22 -5
-44 -3 -40 -2 -42 27 -48 41 -8 51 -8 46 2 -5 6 14 10 61 12 9 1 33 -1 52 -4
19 -2 73 -6 120 -7 l85 -3 -70 -5 -70 -6 118 -9 c65 -5 121 -6 124 -2 4 3 -3
6 -15 6 -12 0 -22 4 -22 8 0 5 -14 29 -30 54 l-31 46 -30 -15 c-47 -24 -199
-13 -259 17 -25 12 -47 26 -50 29 -3 4 -15 2 -28 -5z m183 -74 c3 -5 -1 -10
-10 -10 -9 0 -13 5 -10 10 3 6 8 10 10 10 2 0 7 -4 10 -10z m62 4 c-3 -3 -12
-4 -19 -1 -8 3 -5 6 6 6 11 1 17 -2 13 -5z m47 -3 c4 -5 -3 -7 -14 -4 -23 6
-26 13 -6 13 8 0 17 -4 20 -9z"/>
<path d="M3972 1693 c-14 -28 -3 -43 31 -42 18 0 25 3 17 6 -8 2 -21 7 -29 9
-11 4 -12 7 -3 16 7 7 12 16 12 20 0 15 -19 8 -28 -9z"/>
<path d="M4208 1693 c7 -3 16 -2 19 1 4 3 -2 6 -13 5 -11 0 -14 -3 -6 -6z"/>
<path d="M4356 1686 c3 -8 16 -16 30 -19 32 -6 30 -1 -6 18 -24 13 -29 13 -24
1z"/>
<path d="M4602 1686 c3 -19 48 -44 48 -26 0 6 -7 10 -15 10 -7 0 -19 8 -25 18
-10 16 -11 16 -8 -2z"/>
<path d="M5845 1690 c3 -5 21 -10 38 -10 24 0 28 3 17 10 -20 13 -63 13 -55 0z"/>
<path d="M5090 1645 c0 -24 5 -35 15 -35 15 0 20 26 9 54 -11 28 -24 17 -24
-19z"/>
<path d="M4047 1653 c-13 -12 -8 -75 6 -70 6 2 11 15 10 28 -1 15 0 17 3 7 3
-10 10 -18 15 -18 14 0 10 27 -7 44 -18 18 -18 18 -27 9z"/>
<path d="M5191 1650 c-18 -11 0 -19 23 -10 16 5 17 8 4 12 -8 4 -21 3 -27 -2z"/>
<path d="M5045 1640 c-4 -6 -11 -8 -16 -5 -21 13 -30 -8 -9 -22 19 -14 23 -13
35 3 8 11 15 22 15 27 0 11 -18 9 -25 -3z"/>
<path d="M17 1559 c-9 -17 -17 -40 -16 -52 0 -14 7 -4 20 27 23 56 21 68 -4
25z"/>
<path d="M5120 1531 c0 -38 4 -51 14 -51 19 0 29 17 16 25 -5 3 -10 19 -10 35
0 16 -4 32 -10 35 -6 4 -10 -13 -10 -44z"/>
<path d="M6943 1513 c-22 -4 -29 -14 -17 -25 8 -9 74 14 68 24 -5 8 -13 8 -51
1z"/>
<path d="M6843 1502 c-24 -2 -43 -7 -43 -13 0 -13 77 -11 85 2 9 14 7 14 -42
11z"/>
<path d="M1179 1472 c6 -12 16 -24 22 -28 8 -4 8 -1 0 14 -6 12 -16 24 -22 28
-8 4 -8 1 0 -14z"/>
<path d="M7288 1483 c7 -3 16 -2 19 1 4 3 -2 6 -13 5 -11 0 -14 -3 -6 -6z"/>
<path d="M6875 1461 c-3 -6 3 -9 14 -8 11 0 17 5 15 9 -7 11 -22 10 -29 -1z"/>
<path d="M6926 1462 c-3 -5 1 -9 9 -9 8 0 12 4 9 9 -3 4 -7 8 -9 8 -2 0 -6 -4
-9 -8z"/>
<path d="M6960 1460 c0 -6 16 -10 35 -8 19 1 35 6 35 10 0 4 -16 8 -35 8 -19
0 -35 -5 -35 -10z"/>
<path d="M1074 1439 c8 -11 24 -28 36 -36 21 -15 22 -15 11 5 -14 26 -40 52
-52 52 -6 0 -4 -9 5 -21z"/>
<path d="M6808 1453 c6 -2 18 -2 25 0 6 3 1 5 -13 5 -14 0 -19 -2 -12 -5z"/>
<path d="M3940 1430 c0 -5 5 -10 11 -10 5 0 7 5 4 10 -3 6 -8 10 -11 10 -2 0
-4 -4 -4 -10z"/>
<path d="M7200 1430 c0 -5 5 -10 11 -10 5 0 7 5 4 10 -3 6 -8 10 -11 10 -2 0
-4 -4 -4 -10z"/>
<path d="M3314 1376 c-3 -8 -2 -22 3 -30 8 -14 11 -14 28 -2 16 12 17 16 6 30
-17 20 -30 20 -37 2z"/>
<path d="M4160 1382 c0 -7 -6 -12 -14 -12 -8 0 -18 -5 -21 -10 -8 -14 4 -50
17 -50 5 0 8 7 4 15 -3 8 4 21 17 30 16 12 19 17 9 27 -9 9 -12 9 -12 0z"/>
<path d="M3612 1347 c13 -10 15 -16 6 -25 -9 -9 -3 -12 26 -12 30 0 37 3 32
15 -3 8 -1 14 3 12 5 -1 11 3 13 8 1 6 -19 11 -47 13 -43 2 -48 0 -33 -11z"/>
<path d="M1105 1340 c3 -5 15 -10 26 -10 11 0 17 5 14 10 -3 6 -15 10 -26 10
-11 0 -17 -4 -14 -10z"/>
<path d="M4065 1320 c3 -5 8 -10 11 -10 2 0 4 5 4 10 0 6 -5 10 -11 10 -5 0
-7 -4 -4 -10z"/>
<path d="M4096 1311 c-3 -5 1 -12 10 -15 22 -8 25 -4 9 11 -8 7 -16 9 -19 4z"/>
<path d="M4476 1312 c-3 -6 1 -13 10 -16 23 -9 28 -2 10 13 -8 7 -17 8 -20 3z"/>
<path d="M5049 1308 c0 -2 -2 -13 -3 -25 -4 -31 21 -29 26 2 4 17 1 25 -8 25
-8 0 -14 -1 -15 -2z"/>
<path d="M4288 1293 c6 -2 18 -2 25 0 6 3 1 5 -13 5 -14 0 -19 -2 -12 -5z"/>
<path d="M4974 1279 c-3 -5 -2 -9 3 -9 4 0 19 -3 32 -7 16 -4 22 -2 18 4 -9
15 -46 23 -53 12z"/>
<path d="M4550 1270 c-8 -5 -12 -11 -9 -14 7 -8 49 5 49 15 0 12 -21 11 -40
-1z"/>
<path d="M1052 1207 c-17 -17 -23 -18 -36 -7 -13 10 -22 10 -48 0 -18 -7 -40
-20 -48 -29 -8 -9 -23 -20 -33 -24 -18 -7 -33 -34 -24 -43 8 -8 137 36 137 46
0 5 -5 12 -10 15 -6 4 -8 11 -4 16 3 6 11 3 18 -7 16 -21 62 -8 83 23 20 30
-7 38 -35 10z"/>
<path d="M1228 1183 c-9 -10 -19 -30 -23 -45 -4 -15 -13 -32 -21 -39 -8 -6
-14 -18 -14 -25 0 -8 -4 -14 -10 -14 -5 0 -10 -12 -10 -27 l0 -28 24 26 c21
23 69 106 69 119 0 3 2 10 4 17 10 25 -2 35 -19 16z"/>
<path d="M4897 1171 c3 -12 16 -21 34 -23 25 -4 29 -1 29 19 0 20 -5 23 -34
23 -29 0 -33 -3 -29 -19z"/>
<path d="M4980 1165 c0 -10 7 -15 18 -13 21 4 19 22 -2 26 -10 2 -16 -3 -16
-13z"/>
<path d="M820 1110 c0 -5 5 -10 10 -10 6 0 10 5 10 10 0 6 -4 10 -10 10 -5 0
-10 -4 -10 -10z"/>
<path d="M7425 1095 c-5 -11 -10 -24 -13 -30 -3 -5 3 -3 13 7 9 9 15 22 12 30
-3 9 -7 7 -12 -7z"/>
<path d="M425 1060 c-3 -5 -2 -17 3 -27 5 -10 23 -45 39 -77 30 -62 80 -104
96 -82 5 6 5 1 2 -11 -5 -17 -2 -23 8 -23 9 0 17 6 20 13 2 6 8 9 12 5 4 -4 3
-14 -4 -22 -10 -11 -6 -17 19 -29 26 -14 45 -7 21 7 -5 3 -12 23 -16 43 -4 21
-12 41 -18 45 -16 10 21 48 39 41 16 -6 29 20 19 37 -5 8 -11 5 -20 -7 -11
-15 -16 -16 -37 -4 -14 7 -29 25 -35 39 l-11 27 -1 -25 c-1 -15 7 -30 19 -38
11 -7 20 -20 20 -29 0 -14 -4 -12 -25 7 -14 13 -25 27 -25 31 0 4 -12 26 -27
48 -22 34 -32 41 -59 41 -18 0 -35 -4 -39 -10z"/>
<path d="M525 1060 c3 -5 8 -10 11 -10 2 0 4 5 4 10 0 6 -5 10 -11 10 -5 0 -7
-4 -4 -10z"/>
<path d="M6471 1044 c0 -11 3 -14 6 -6 3 7 2 16 -1 19 -3 4 -6 -2 -5 -13z"/>
<path d="M1375 1038 c-55 -19 -110 -40 -127 -49 -9 -5 -35 -12 -58 -15 -33 -5
-40 -4 -40 9 0 10 -6 14 -15 11 -8 -4 -15 -10 -15 -16 0 -5 5 -6 10 -3 6 3 10
2 10 -4 0 -10 -6 -11 -82 -14 -25 -1 -50 -5 -54 -9 -4 -5 -16 -8 -26 -8 -10 0
-18 -4 -18 -10 0 -5 -6 -10 -14 -10 -8 0 -16 -7 -20 -15 -4 -10 1 -15 14 -15
25 0 26 -17 3 -23 -18 -4 -9 -3 109 8 31 3 80 14 110 24 66 23 178 81 178 93
0 4 6 8 13 8 8 0 24 11 37 25 13 14 22 25 19 24 -2 -1 -17 -6 -34 -11z"/>
<path d="M2 593 c3 -433 3 -439 27 -515 l25 -78 147 0 148 0 -15 48 c-26 85
-212 734 -245 860 -33 119 -34 122 -62 122 l-28 0 3 -437z"/>
<path d="M6461 984 c0 -11 3 -14 6 -6 3 7 2 16 -1 19 -3 4 -6 -2 -5 -13z"/>
<path d="M7495 970 c3 -5 10 -10 16 -10 5 0 9 5 9 10 0 6 -7 10 -16 10 -8 0
-12 -4 -9 -10z"/>
<path d="M412 908 c2 -6 10 -14 16 -16 7 -2 10 2 6 12 -7 18 -28 22 -22 4z"/>
<path d="M3565 910 c-3 -5 -1 -10 4 -10 6 0 11 5 11 10 0 6 -2 10 -4 10 -3 0
-8 -4 -11 -10z"/>
<path d="M3245 861 c-3 -6 0 -14 9 -17 8 -3 17 -12 20 -20 4 -11 -9 -13 -79
-11 -46 2 -82 0 -79 -5 6 -9 145 -11 169 -2 9 4 13 10 8 13 -5 3 -16 16 -25
29 -10 15 -18 19 -23 13z"/>
<path d="M4385 810 c3 -5 8 -10 11 -10 2 0 4 5 4 10 0 6 -5 10 -11 10 -5 0 -7
-4 -4 -10z"/>
<path d="M4062 793 c-20 -4 -21 -6 -6 -20 13 -14 17 -14 25 -2 8 13 12 31 7
28 -2 -1 -13 -4 -26 -6z"/>
<path d="M3490 737 c0 -8 13 -13 35 -14 24 -1 35 3 35 13 0 9 -12 14 -35 14
-22 0 -35 -5 -35 -13z"/>
<path d="M3748 729 c-10 -5 -18 -14 -18 -19 0 -12 53 4 58 18 5 15 -17 15 -40
1z"/>
<path d="M3685 720 c-3 -5 -2 -10 4 -10 5 0 13 5 16 10 3 6 2 10 -4 10 -5 0
-13 -4 -16 -10z"/>
<path d="M3825 700 c-3 -5 -1 -10 4 -10 6 0 11 5 11 10 0 6 -2 10 -4 10 -3 0
-8 -4 -11 -10z"/>
<path d="M1070 690 c-13 -9 -13 -10 0 -10 8 0 22 5 30 10 13 9 13 10 0 10 -8
0 -22 -5 -30 -10z"/>
<path d="M4315 682 c3 -7 5 -18 5 -23 0 -5 7 -9 15 -9 9 0 12 6 9 15 -4 10 0
15 16 15 12 0 18 4 15 10 -10 16 -67 8 -60 -8z"/>
<path d="M3763 677 c3 -8 0 -20 -6 -26 -8 -8 -8 -11 1 -11 7 0 12 5 12 10 0 6
7 10 16 10 21 0 12 24 -11 29 -12 2 -16 -1 -12 -12z"/>
<path d="M3625 640 c-3 -5 -1 -10 4 -10 6 0 11 5 11 10 0 6 -2 10 -4 10 -3 0
-8 -4 -11 -10z"/>
<path d="M3672 623 c-6 -2 -10 -9 -7 -13 7 -11 35 -2 35 11 0 10 -8 10 -28 2z"/>
<path d="M818 613 c12 -2 30 -2 40 0 9 3 -1 5 -23 4 -22 0 -30 -2 -17 -4z"/>
<path d="M3609 603 c-10 -2 -16 -14 -16 -28 0 -32 1 -31 27 5 21 30 20 32 -11
23z"/>
<path d="M4521 578 c-15 -40 -45 -60 -77 -52 -25 6 -27 5 -17 -8 7 -8 11 -17
8 -20 -3 -3 12 -4 32 -2 21 1 37 7 36 13 -2 6 4 11 12 11 23 0 6 -29 -21 -36
-20 -5 -23 -11 -18 -28 8 -26 24 -45 24 -28 0 7 12 12 26 12 24 0 26 3 21 30
-5 20 -3 30 6 30 7 0 11 12 11 28 -2 37 -14 72 -25 72 -5 0 -13 -10 -18 -22z"/>
<path d="M3640 576 c0 -21 26 -26 47 -10 17 14 17 15 -4 9 -14 -4 -23 -2 -23
4 0 6 -4 11 -10 11 -5 0 -10 -6 -10 -14z"/>
<path d="M3804 578 c-5 -8 -2 -9 9 -5 12 4 17 1 17 -10 0 -14 3 -14 12 -5 10
10 10 15 -2 22 -20 13 -27 12 -36 -2z"/>
<path d="M3550 560 c0 -5 7 -10 16 -10 8 0 12 5 9 10 -3 6 -10 10 -16 10 -5 0
-9 -4 -9 -10z"/>
<path d="M3860 550 c0 -5 5 -10 10 -10 6 0 10 5 10 10 0 6 -4 10 -10 10 -5 0
-10 -4 -10 -10z"/>
<path d="M3620 536 c0 -8 13 -16 30 -18 37 -6 39 9 4 22 -33 13 -34 13 -34 -4z"/>
<path d="M3546 511 c-3 -5 1 -12 10 -15 20 -8 29 -1 19 13 -8 13 -22 14 -29 2z"/>
<path d="M4326 501 c-3 -5 1 -15 10 -22 13 -10 17 -10 24 1 6 9 4 17 -3 22
-16 10 -25 10 -31 -1z"/>
<path d="M550 460 c20 -13 43 -13 35 0 -3 6 -16 10 -28 10 -18 0 -19 -2 -7
-10z"/>
<path d="M7440 392 c0 -6 -8 -13 -17 -15 -16 -4 -16 -5 -1 -6 18 -1 34 16 24
26 -3 4 -6 1 -6 -5z"/>
<path d="M3715 239 c-10 -15 1 -23 20 -15 9 3 13 10 10 16 -8 13 -22 13 -30
-1z"/>
<path d="M3950 187 c0 -8 -8 -18 -17 -21 -43 -16 -73 -39 -73 -56 0 -14 -5
-17 -22 -12 -29 7 -16 -13 22 -31 31 -16 38 -11 47 38 5 27 43 65 66 65 10 0
17 5 15 13 -7 18 -38 21 -38 4z"/>
<path d="M4002 177 c-9 -10 -29 -26 -44 -35 -28 -17 -38 -42 -16 -42 6 0 -1
-14 -17 -30 -22 -23 -36 -29 -52 -25 -28 7 -30 -6 -4 -29 16 -15 20 -15 31 -1
7 8 16 12 21 9 5 -3 9 2 9 10 0 9 6 16 13 16 24 0 47 34 41 60 -4 18 -3 21 4
11 8 -11 12 -10 21 7 6 11 11 28 11 36 0 9 5 16 10 16 6 0 10 -9 10 -19 0 -14
5 -18 19 -14 21 5 37 33 20 33 -6 0 -8 4 -4 10 11 17 -56 5 -73 -13z"/>
<path d="M3825 160 c3 -5 10 -10 16 -10 5 0 9 5 9 10 0 6 -7 10 -16 10 -8 0
-12 -4 -9 -10z"/>
<path d="M4150 150 c0 -5 5 -10 10 -10 6 0 10 5 10 10 0 6 -4 10 -10 10 -5 0
-10 -4 -10 -10z"/>
<path d="M4100 130 c0 -12 7 -20 18 -21 11 0 7 -4 -10 -11 -16 -5 -28 -14 -28
-19 0 -6 -5 -7 -10 -4 -6 4 -13 -7 -16 -24 -4 -17 -10 -31 -15 -31 -5 0 -9 -4
-9 -10 0 -5 11 -9 25 -8 14 1 24 7 21 13 -2 6 4 12 15 12 12 1 16 -3 12 -13
-3 -8 0 -14 7 -14 6 0 9 4 6 9 -3 5 10 23 29 40 20 17 31 31 25 31 -5 0 -10 8
-10 18 0 18 -33 52 -50 52 -6 0 -10 -9 -10 -20z m10 -71 c0 -5 -4 -9 -10 -9
-5 0 -10 7 -10 16 0 8 5 12 10 9 6 -3 10 -10 10 -16z"/>
<path d="M3548 133 c7 -3 16 -2 19 1 4 3 -2 6 -13 5 -11 0 -14 -3 -6 -6z"/>
<path d="M4027 123 c-17 -17 -5 -31 25 -29 43 2 51 31 10 34 -16 1 -32 -1 -35
-5z"/>
<path d="M3992 55 c-13 -13 -19 -26 -14 -29 5 -3 19 8 31 24 25 35 16 38 -17
5z"/>
<path d="M3759 47 c5 -5 24 -7 42 -5 33 3 33 4 -8 8 -23 3 -39 2 -34 -3z"/>
<path d="M4168 33 c-19 -5 -25 -33 -7 -33 6 0 22 9 36 20 22 17 23 20 7 19
-11 -1 -27 -3 -36 -6z"/>
<path d="M3650 15 c7 -8 25 -15 41 -15 19 0 29 5 29 15 0 18 -5 19 -32 4 -15
-8 -19 -8 -14 0 5 7 -1 11 -15 11 -18 0 -19 -2 -9 -15z"/>
<path d="M3750 15 c-10 -12 -10 -15 4 -15 9 0 16 7 16 15 0 8 -2 15 -4 15 -2
0 -9 -7 -16 -15z"/>
</g>
</svg>
